<?xml version="1.0" encoding="UTF-8"?>
<svg id="Layer_1" data-name="Layer 1" xmlns="http://www.w3.org/2000/svg" xmlns:xlink="http://www.w3.org/1999/xlink" viewBox="0 0 1491 500">
  <defs>
    <style>
      .cls-1, .cls-2 {
        fill: none;
      }

      .cls-3 {
        fill: #54595f;
      }

      .cls-4 {
        fill: #7a7a7a;
      }

      .cls-5, .cls-6 {
        fill: #555963;
      }

      .cls-6 {
        fill-rule: evenodd;
      }

      .cls-7 {
        fill: #fff;
      }

      .cls-2 {
        stroke: #555963;
        stroke-width: 2px;
      }

      .cls-8 {
        fill: #61ce70;
      }

      .cls-9 {
        fill: #e0e1e2;
      }

      .cls-10 {
        fill: #6ec1e4;
      }

      .cls-11 {
        clip-path: url(#clippath);
      }
    </style>
    <clipPath id="clippath">
      <rect class="cls-1" x="775.5" y="60" width="655.5" height="380"/>
    </clipPath>
  </defs>
  <rect class="cls-7" width="1491" height="500"/>
  <path class="cls-4" d="M67.38,99.12c0-.27-.04-.5-.12-.7-.08-.21-.22-.4-.42-.56-.2-.17-.47-.33-.83-.48-.35-.15-.79-.3-1.33-.46-.56-.17-1.07-.35-1.52-.55-.45-.21-.84-.45-1.16-.71-.32-.27-.57-.57-.74-.91-.17-.34-.26-.74-.26-1.18s.09-.85.27-1.23c.18-.38.44-.7.78-.98.34-.28.75-.5,1.23-.66.47-.16,1-.23,1.59-.23.85,0,1.58.16,2.17.49.6.32,1.05.75,1.37,1.27.31.52.47,1.08.47,1.67h-1.5c0-.43-.09-.8-.27-1.13-.18-.33-.46-.59-.83-.78-.37-.19-.84-.29-1.41-.29-.54,0-.98.08-1.33.24-.35.16-.61.38-.78.66-.17.28-.25.59-.25.95,0,.24.05.46.15.66.1.19.26.37.48.54.22.17.49.32.83.46.34.14.74.28,1.21.41.65.18,1.2.39,1.67.61.47.22.85.48,1.16.76.31.28.53.59.68.95.15.35.23.74.23,1.19s-.09.88-.28,1.26c-.19.38-.46.69-.8.96-.35.27-.77.47-1.26.62-.48.14-1.03.21-1.62.21-.53,0-1.04-.07-1.55-.22-.51-.15-.97-.37-1.38-.66-.41-.29-.74-.65-.99-1.08-.24-.43-.37-.93-.37-1.5h1.5c0,.39.08.73.23,1.01.15.28.36.51.62.69.27.18.57.32.9.41.34.08.69.12,1.05.12.53,0,.97-.07,1.34-.22.36-.15.64-.35.83-.62.19-.27.29-.59.29-.96ZM74.14,93.55v1.11h-4.57v-1.11h4.57ZM71.12,91.49h1.45v8.41c0,.29.04.5.13.65.09.15.2.24.34.29.14.05.29.07.45.07.12,0,.24-.01.38-.03.14-.03.24-.05.3-.06v1.18c-.11.04-.26.07-.45.1-.18.04-.4.05-.66.05-.35,0-.68-.07-.98-.21-.3-.14-.53-.38-.71-.7-.17-.33-.26-.78-.26-1.34v-8.41ZM80.82,100.56v-4.35c0-.33-.07-.62-.2-.87-.13-.25-.33-.44-.59-.58-.27-.14-.59-.2-.98-.2-.36,0-.68.06-.96.19-.27.12-.48.29-.64.49-.15.2-.23.42-.23.66h-1.45c0-.3.08-.6.23-.9.16-.3.38-.57.67-.8.3-.24.65-.44,1.06-.58.42-.15.88-.22,1.39-.22.61,0,1.16.1,1.62.31.47.21.84.52,1.11.95.27.42.41.94.41,1.57v3.94c0,.28.02.58.07.9.05.32.13.59.23.82v.12h-1.51c-.07-.17-.13-.39-.17-.66-.04-.28-.06-.54-.06-.78ZM81.07,96.88l.02,1.02h-1.46c-.41,0-.78.03-1.1.1-.32.06-.59.16-.81.29-.22.13-.39.29-.5.49-.11.19-.17.42-.17.68s.06.51.18.73c.12.22.3.39.54.52.24.12.54.19.9.19.44,0,.83-.09,1.17-.28.34-.19.61-.42.8-.69.2-.27.31-.53.33-.79l.62.7c-.04.22-.14.46-.3.73-.16.26-.38.52-.65.76-.27.24-.58.44-.95.6-.36.16-.78.23-1.23.23-.57,0-1.08-.11-1.51-.34-.43-.22-.76-.52-1-.9-.23-.38-.35-.81-.35-1.27s.09-.85.27-1.2c.18-.35.43-.64.77-.87.33-.23.73-.41,1.2-.53.47-.12.99-.18,1.57-.18h1.68ZM85.98,94.88v7.12h-1.45v-8.45h1.41l.04,1.33ZM88.62,93.5v1.34c-.13-.03-.24-.04-.35-.05-.1-.01-.22-.02-.36-.02-.33,0-.63.05-.88.16-.26.1-.47.25-.65.44-.18.19-.32.41-.42.67-.1.26-.16.54-.2.84l-.41.23c0-.51.05-.99.15-1.44.1-.45.26-.84.48-1.19.21-.35.48-.62.81-.81.33-.2.73-.3,1.19-.3.1,0,.22.01.36.04.14.02.23.04.28.07ZM93.89,93.55v1.11h-4.57v-1.11h4.57ZM90.87,91.49h1.45v8.41c0,.29.04.5.13.65.09.15.2.24.34.29.14.05.29.07.45.07.12,0,.24-.01.38-.03.14-.03.24-.05.3-.06v1.18c-.11.04-.26.07-.45.1-.18.04-.4.05-.66.05-.35,0-.68-.07-.98-.21-.3-.14-.53-.38-.71-.7-.17-.33-.26-.78-.26-1.34v-8.41ZM101.93,101.12l2.35-7.58h1.55l-3.39,9.76c-.08.21-.18.43-.31.67-.12.24-.29.48-.48.69-.2.22-.44.4-.72.53-.28.14-.61.21-.99.21-.11,0-.26-.02-.44-.05-.18-.03-.3-.06-.38-.08v-1.17s.1.01.19.02c.09,0,.16.01.2.01.33,0,.61-.04.84-.13.23-.08.42-.23.58-.43.16-.2.3-.47.41-.82l.6-1.64ZM100.2,93.55l2.19,6.56.38,1.52-1.04.53-3.11-8.62h1.58ZM106.62,97.87v-.18c0-.61.09-1.17.27-1.7.18-.53.43-.98.76-1.37.33-.39.74-.69,1.21-.91.47-.22,1.01-.33,1.59-.33s1.13.11,1.6.33c.48.21.89.52,1.22.91.34.39.6.84.77,1.37.18.52.26,1.09.26,1.7v.18c0,.61-.09,1.17-.26,1.7-.18.52-.43.98-.77,1.37-.33.39-.74.69-1.21.91-.47.21-1,.32-1.59.32s-1.13-.11-1.6-.32c-.47-.22-.88-.52-1.22-.91-.33-.39-.59-.85-.76-1.37-.18-.52-.27-1.09-.27-1.7ZM108.07,97.69v.18c0,.42.05.82.15,1.2.1.37.25.7.44.98.2.29.46.51.76.68.3.16.65.24,1.06.24s.74-.08,1.04-.24c.3-.17.55-.39.75-.68.2-.29.35-.61.44-.98.1-.38.16-.77.16-1.2v-.18c0-.42-.05-.81-.16-1.18-.1-.38-.25-.71-.45-.99-.2-.29-.45-.52-.75-.69-.3-.17-.65-.25-1.05-.25s-.74.08-1.05.25c-.3.17-.55.4-.75.69-.2.29-.35.62-.44.99-.1.37-.15.76-.15,1.18ZM121.31,100.05v-6.5h1.45v8.45h-1.38l-.07-1.95ZM121.58,98.27l.6-.02c0,.56-.06,1.08-.18,1.56-.11.47-.3.89-.56,1.23-.26.35-.6.62-1.02.82-.42.19-.94.29-1.54.29-.41,0-.79-.06-1.13-.18-.34-.12-.63-.31-.88-.56-.24-.25-.43-.58-.57-.98-.13-.4-.19-.88-.19-1.44v-5.45h1.44v5.47c0,.38.04.7.12.95.09.25.21.44.35.59.15.14.32.24.5.3.19.06.38.09.58.09.61,0,1.1-.12,1.46-.35.36-.24.62-.56.77-.96.16-.41.24-.86.24-1.35ZM126.41,94.88v7.12h-1.44v-8.45h1.41l.04,1.33ZM129.05,93.5v1.34c-.13-.03-.24-.04-.35-.05-.1-.01-.22-.02-.36-.02-.33,0-.63.05-.88.16-.26.1-.47.25-.65.44s-.32.41-.42.67c-.1.26-.16.54-.19.84l-.41.23c0-.51.05-.99.15-1.44.1-.45.26-.84.48-1.19.21-.35.49-.62.81-.81.33-.2.73-.3,1.19-.3.1,0,.22.01.36.04.13.02.23.04.28.07ZM134.39,93.55h1.45v9.46c0,.51-.08.95-.25,1.31-.16.36-.41.63-.74.81-.32.19-.73.28-1.23.28-.13,0-.28-.01-.45-.04-.18-.03-.33-.06-.45-.09v-1.16c.11.02.22.04.34.05.12.02.23.02.33.02.21,0,.39-.04.54-.12.15-.08.26-.2.33-.38.08-.17.12-.4.12-.69v-9.46ZM134.24,91.3c0-.23.07-.43.22-.59.15-.16.36-.24.63-.24s.5.08.64.24c.15.16.22.36.22.59s-.07.42-.22.58c-.14.16-.36.23-.64.23s-.49-.08-.63-.23c-.15-.16-.22-.35-.22-.58ZM137.8,97.87v-.18c0-.61.09-1.17.26-1.7.18-.53.43-.98.77-1.37.33-.39.74-.69,1.21-.91.47-.22,1.01-.33,1.59-.33s1.13.11,1.6.33c.48.21.89.52,1.22.91.34.39.6.84.77,1.37.18.52.26,1.09.26,1.7v.18c0,.61-.09,1.17-.26,1.7-.18.52-.43.98-.77,1.37-.33.39-.74.69-1.21.91-.47.21-1,.32-1.59.32s-1.13-.11-1.6-.32c-.47-.22-.88-.52-1.22-.91-.33-.39-.59-.85-.77-1.37-.18-.52-.26-1.09-.26-1.7ZM139.24,97.69v.18c0,.42.05.82.15,1.2.1.37.25.7.44.98.2.29.46.51.76.68.3.16.65.24,1.05.24s.74-.08,1.04-.24c.3-.17.55-.39.75-.68.2-.29.35-.61.44-.98.1-.38.16-.77.16-1.2v-.18c0-.42-.05-.81-.16-1.18-.1-.38-.25-.71-.45-.99-.2-.29-.45-.52-.75-.69-.3-.17-.65-.25-1.05-.25s-.74.08-1.05.25c-.3.17-.55.4-.75.69-.2.29-.35.62-.44.99-.1.37-.15.76-.15,1.18ZM152.48,100.05v-6.5h1.45v8.45h-1.38l-.07-1.95ZM152.75,98.27l.6-.02c0,.56-.06,1.08-.18,1.56-.11.47-.3.89-.56,1.23-.26.35-.6.62-1.02.82-.42.19-.93.29-1.54.29-.41,0-.79-.06-1.13-.18-.34-.12-.63-.31-.88-.56s-.43-.58-.57-.98c-.13-.4-.2-.88-.2-1.44v-5.45h1.45v5.47c0,.38.04.7.12.95.09.25.21.44.35.59.15.14.32.24.5.3.19.06.38.09.58.09.62,0,1.1-.12,1.46-.35.36-.24.62-.56.77-.96.16-.41.24-.86.24-1.35ZM157.58,94.88v7.12h-1.45v-8.45h1.41l.04,1.33ZM160.22,93.5v1.34c-.13-.03-.24-.04-.35-.05-.1-.01-.22-.02-.36-.02-.33,0-.63.05-.88.16s-.47.25-.65.44c-.18.19-.32.41-.42.67-.1.26-.16.54-.2.84l-.41.23c0-.51.05-.99.15-1.44.1-.45.26-.84.48-1.19.21-.35.48-.62.81-.81.33-.2.73-.3,1.19-.3.1,0,.22.01.36.04.13.02.23.04.28.07ZM163,95.35v6.65h-1.45v-8.45h1.37l.08,1.8ZM162.66,97.45l-.6-.02c0-.58.09-1.11.26-1.6.17-.49.4-.92.7-1.29.3-.36.66-.65,1.08-.84.42-.2.89-.3,1.4-.3.42,0,.79.06,1.12.17.33.11.62.29.85.53.24.24.42.56.55.95.12.39.19.86.19,1.41v5.54h-1.45v-5.55c0-.44-.07-.8-.2-1.06-.13-.27-.32-.47-.57-.59-.25-.12-.56-.19-.92-.19s-.69.08-.98.23c-.29.15-.54.36-.76.62-.21.27-.37.57-.49.91-.11.34-.17.7-.17,1.08ZM173.91,102.16c-.59,0-1.12-.1-1.6-.3-.47-.2-.88-.49-1.23-.85-.34-.37-.6-.8-.78-1.3-.18-.5-.27-1.05-.27-1.64v-.33c0-.69.1-1.3.31-1.84.2-.54.48-1,.83-1.38s.74-.66,1.19-.85c.44-.19.9-.29,1.38-.29.6,0,1.12.1,1.56.31.44.21.8.5,1.09.88.28.37.49.81.62,1.31.14.5.2,1.05.2,1.64v.65h-6.31v-1.18h4.87v-.11c-.02-.38-.1-.74-.23-1.09-.13-.35-.34-.65-.62-.88-.29-.23-.68-.34-1.17-.34-.33,0-.63.07-.91.21-.28.14-.51.34-.71.61-.2.27-.35.6-.46.99-.11.39-.16.84-.16,1.35v.33c0,.4.05.78.16,1.13.11.35.28.66.49.92.22.27.48.47.79.62.31.15.67.23,1.06.23.51,0,.94-.1,1.3-.31.35-.21.66-.49.93-.84l.88.69c-.18.28-.41.54-.69.79-.28.25-.63.45-1.04.61-.41.16-.89.23-1.45.23ZM181.15,101.12l2.35-7.58h1.55l-3.39,9.76c-.08.21-.18.43-.31.67-.12.24-.29.48-.49.69-.2.22-.44.4-.72.53-.28.14-.61.21-.99.21-.11,0-.26-.02-.44-.05-.18-.03-.3-.06-.38-.08v-1.17s.1.01.19.02c.09,0,.16.01.2.01.33,0,.61-.04.84-.13.23-.08.42-.23.58-.43.16-.2.3-.47.41-.82l.6-1.64ZM179.42,93.55l2.2,6.56.38,1.52-1.04.53-3.11-8.62h1.58Z"/>
  <path class="cls-10" d="M71.22,157.7l-6.48,19.3h-4.55l8.5-22.75h2.91l-.38,3.45ZM76.64,177l-6.52-19.3-.39-3.45h2.92l8.55,22.75h-4.56ZM76.34,168.55v3.39h-12.2v-3.39h12.2ZM90.17,174.06c.58,0,1.1-.11,1.56-.34.46-.23.82-.55,1.09-.97.28-.42.43-.9.45-1.45h3.89c-.02,1.15-.34,2.17-.97,3.08s-1.46,1.62-2.5,2.16c-1.03.52-2.19.78-3.47.78s-2.44-.22-3.41-.66c-.97-.44-1.78-1.05-2.42-1.83-.64-.78-1.11-1.69-1.44-2.72-.31-1.03-.47-2.13-.47-3.31v-.5c0-1.18.16-2.28.47-3.31.32-1.03.8-1.94,1.44-2.72.65-.78,1.45-1.39,2.42-1.83.97-.44,2.1-.66,3.39-.66,1.36,0,2.56.27,3.59.8,1.04.53,1.85,1.28,2.44,2.25.59.97.9,2.11.92,3.42h-3.89c-.02-.6-.16-1.15-.41-1.62s-.6-.87-1.06-1.16c-.46-.29-1.02-.44-1.67-.44-.7,0-1.28.15-1.75.44-.46.29-.82.69-1.08,1.2-.25.5-.43,1.06-.53,1.69-.09.62-.14,1.26-.14,1.94v.5c0,.69.05,1.34.14,1.97.1.62.28,1.19.53,1.69.26.49.62.88,1.08,1.17.47.29,1.06.44,1.78.44ZM103.97,153v24h-4.14v-24h4.14ZM103.31,167.94h-1.22c0-1.18.16-2.26.47-3.25.31-.99.76-1.85,1.33-2.58.57-.74,1.26-1.31,2.05-1.72.8-.41,1.69-.61,2.66-.61.83,0,1.59.12,2.26.36.69.23,1.28.6,1.77,1.11s.86,1.18,1.12,2c.27.81.41,1.8.41,2.97v10.78h-4.16v-10.81c0-.78-.11-1.4-.34-1.84-.23-.46-.56-.79-.98-.99-.42-.2-.93-.3-1.55-.3-.67,0-1.24.13-1.72.39-.48.25-.88.6-1.19,1.05-.3.45-.53.96-.69,1.55-.15.58-.22,1.21-.22,1.89ZM122.17,160.09v16.91h-4.14v-16.91h4.14ZM117.75,155.67c0-.61.21-1.12.62-1.53.43-.41,1-.61,1.72-.61s1.29.2,1.7.61c.43.41.64.92.64,1.53s-.21,1.11-.64,1.52c-.42.41-.99.61-1.7.61s-1.29-.2-1.72-.61c-.42-.41-.62-.91-.62-1.52ZM133.7,177.31c-1.28,0-2.43-.21-3.45-.62-1.02-.42-1.89-1-2.61-1.74-.71-.75-1.26-1.62-1.64-2.61-.38-1-.56-2.07-.56-3.22v-.62c0-1.3.19-2.48.56-3.55.38-1.07.91-2,1.59-2.76.69-.77,1.51-1.37,2.47-1.78.96-.42,2.02-.62,3.17-.62s2.26.2,3.17.61c.92.39,1.68.96,2.3,1.69.61.73,1.08,1.6,1.39,2.62.31,1.01.47,2.13.47,3.36v1.74h-13.25v-2.84h9.19v-.31c-.02-.66-.15-1.26-.38-1.8-.23-.55-.58-.99-1.06-1.31-.48-.33-1.1-.5-1.86-.5-.61,0-1.15.14-1.61.41-.45.26-.82.63-1.12,1.12-.29.48-.51,1.05-.66,1.72-.14.67-.22,1.41-.22,2.22v.62c0,.71.09,1.37.28,1.97.2.6.48,1.13.86,1.58.39.44.84.78,1.38,1.03.54.24,1.16.36,1.84.36.86,0,1.65-.17,2.34-.5.71-.34,1.32-.85,1.84-1.51l2.08,2.16c-.35.52-.83,1.02-1.44,1.5-.59.48-1.31.87-2.16,1.17-.84.29-1.82.44-2.92.44ZM148.72,173.88l3.94-13.78h4.31l-5.8,16.91h-2.62l.17-3.12ZM145.84,160.09l3.98,13.81.14,3.09h-2.64l-5.81-16.91h4.33ZM166.52,177.31c-1.28,0-2.43-.21-3.45-.62-1.02-.42-1.89-1-2.61-1.74-.71-.75-1.26-1.62-1.64-2.61-.37-1-.56-2.07-.56-3.22v-.62c0-1.3.19-2.48.56-3.55.38-1.07.91-2,1.59-2.76.69-.77,1.51-1.37,2.47-1.78.96-.42,2.02-.62,3.17-.62s2.26.2,3.17.61c.92.39,1.68.96,2.3,1.69.61.73,1.08,1.6,1.39,2.62.31,1.01.47,2.13.47,3.36v1.74h-13.25v-2.84h9.19v-.31c-.02-.66-.14-1.26-.37-1.8-.23-.55-.58-.99-1.06-1.31-.48-.33-1.1-.5-1.86-.5-.62,0-1.15.14-1.61.41-.45.26-.82.63-1.12,1.12-.29.48-.51,1.05-.66,1.72-.15.67-.22,1.41-.22,2.22v.62c0,.71.09,1.37.28,1.97.2.6.48,1.13.86,1.58.39.44.84.78,1.38,1.03.54.24,1.16.36,1.84.36.86,0,1.64-.17,2.34-.5.71-.34,1.32-.85,1.84-1.51l2.08,2.16c-.35.52-.83,1.02-1.44,1.5-.59.48-1.31.87-2.16,1.17-.84.29-1.82.44-2.92.44ZM189.06,175.12l4.53-15.03h4.42l-6.78,19.47c-.16.42-.36.87-.61,1.36-.24.49-.56.95-.97,1.39-.41.45-.92.81-1.53,1.09-.6.28-1.34.42-2.2.42-.38,0-.71-.03-1-.08-.29-.05-.6-.12-.92-.2v-3.09c.1.01.22.02.36.02.15.01.27.01.38.01.61,0,1.11-.07,1.5-.22.4-.14.71-.36.95-.67.25-.3.46-.7.62-1.19l1.25-3.28ZM186.83,160.09l3.83,12.45.67,4.36-2.84.52-6.11-17.33h4.45ZM199.03,168.72v-.33c0-1.24.18-2.38.53-3.42.36-1.05.87-1.96,1.55-2.74.68-.77,1.51-1.37,2.49-1.8.98-.44,2.09-.66,3.34-.66s2.39.22,3.37.66c.99.43,1.82,1.03,2.5,1.8.68.77,1.19,1.68,1.55,2.74.36,1.04.53,2.18.53,3.42v.33c0,1.23-.18,2.37-.53,3.42-.35,1.04-.87,1.95-1.55,2.73-.68.77-1.5,1.37-2.48,1.8s-2.1.64-3.36.64-2.37-.21-3.36-.64c-.99-.43-1.82-1.03-2.5-1.8-.68-.78-1.19-1.69-1.55-2.73-.35-1.05-.53-2.19-.53-3.42ZM203.16,168.39v.33c0,.74.07,1.43.22,2.08s.37,1.21.67,1.7.69.88,1.17,1.16c.49.27,1.07.41,1.75.41s1.24-.13,1.72-.41c.48-.28.87-.67,1.17-1.16.31-.49.54-1.06.69-1.7s.22-1.34.22-2.08v-.33c0-.73-.07-1.41-.22-2.05-.15-.65-.38-1.21-.69-1.7-.3-.5-.7-.89-1.19-1.17-.48-.29-1.06-.44-1.73-.44s-1.24.15-1.72.44c-.48.28-.87.67-1.17,1.17-.3.49-.53,1.06-.67,1.7-.15.64-.22,1.32-.22,2.05ZM227.95,172.98v-12.89h4.16v16.91h-3.91l-.25-4.02ZM228.48,169.48l1.28-.03c0,1.14-.12,2.18-.38,3.14-.25.96-.64,1.79-1.17,2.5-.52.7-1.18,1.25-1.99,1.64-.8.39-1.75.58-2.84.58-.83,0-1.59-.11-2.28-.34-.69-.24-1.28-.61-1.78-1.11-.49-.51-.87-1.16-1.14-1.95-.27-.8-.41-1.76-.41-2.89v-10.92h4.12v10.95c0,.56.06,1.03.19,1.41.14.38.32.68.55.92.24.23.51.4.83.5.32.09.67.14,1.03.14,1,0,1.79-.2,2.36-.59.58-.41,1-.95,1.25-1.62.25-.69.38-1.46.38-2.31ZM239.89,163.55v13.45h-4.12v-16.91h3.91l.22,3.45ZM245.03,159.98l-.06,3.84c-.23-.04-.49-.07-.78-.09-.28-.02-.55-.03-.8-.03-.64,0-1.19.09-1.67.27-.48.17-.88.41-1.2.73-.31.32-.55.72-.72,1.19-.17.46-.26.98-.28,1.56l-.89-.11c0-1.07.11-2.07.33-2.99.22-.92.54-1.72.95-2.41.42-.69.94-1.22,1.56-1.59.64-.38,1.36-.58,2.19-.58.23,0,.47.02.74.06.27.03.48.08.64.14ZM266.02,160.09h3.75v16.39c0,1.53-.33,2.83-1,3.89-.66,1.07-1.58,1.88-2.77,2.44-1.19.56-2.57.84-4.14.84-.68,0-1.41-.09-2.2-.28-.78-.19-1.54-.48-2.27-.89-.72-.39-1.32-.91-1.8-1.55l1.86-2.44c.56.66,1.2,1.15,1.91,1.48.71.34,1.47.52,2.3.52s1.54-.16,2.12-.47c.59-.3,1.05-.75,1.36-1.34.32-.58.48-1.3.48-2.16v-12.58l.39-3.86ZM254.59,168.75v-.33c0-1.29.16-2.46.47-3.52.31-1.06.76-1.97,1.34-2.73.59-.76,1.31-1.35,2.14-1.77.84-.42,1.79-.62,2.84-.62,1.11,0,2.05.2,2.81.61.77.41,1.41.98,1.91,1.73.51.75.91,1.64,1.19,2.67.29,1.02.52,2.15.67,3.38v.89c-.15,1.2-.38,2.3-.7,3.3-.31,1-.73,1.88-1.25,2.62-.52.74-1.17,1.31-1.94,1.72-.77.41-1.68.61-2.72.61s-1.98-.21-2.81-.64-1.55-1.03-2.14-1.8c-.58-.77-1.03-1.68-1.34-2.72-.31-1.04-.47-2.18-.47-3.41ZM258.72,168.42v.33c0,.73.07,1.41.22,2.05.15.64.37,1.2.67,1.69.3.48.68.86,1.14,1.12.46.27,1.01.41,1.64.41.85,0,1.55-.18,2.09-.53.55-.36.97-.86,1.25-1.48.29-.63.48-1.35.56-2.14v-2.45c-.05-.62-.17-1.2-.34-1.73-.17-.53-.4-.99-.7-1.38-.3-.39-.69-.69-1.16-.91-.47-.22-1.03-.33-1.67-.33s-1.17.14-1.64.42c-.47.27-.85.65-1.16,1.14s-.53,1.06-.69,1.7c-.15.65-.22,1.34-.22,2.09ZM272.75,168.72v-.33c0-1.24.18-2.38.53-3.42.35-1.05.87-1.96,1.55-2.74.68-.77,1.51-1.37,2.48-1.8.98-.44,2.09-.66,3.34-.66s2.4.22,3.38.66c.99.43,1.82,1.03,2.5,1.8.68.77,1.19,1.68,1.55,2.74.35,1.04.53,2.18.53,3.42v.33c0,1.23-.18,2.37-.53,3.42-.35,1.04-.87,1.95-1.55,2.73-.68.77-1.51,1.37-2.48,1.8s-2.1.64-3.36.64-2.37-.21-3.36-.64c-.99-.43-1.82-1.03-2.5-1.8-.68-.78-1.19-1.69-1.55-2.73-.35-1.05-.53-2.19-.53-3.42ZM276.88,168.39v.33c0,.74.07,1.43.22,2.08s.37,1.21.67,1.7.69.88,1.17,1.16c.49.27,1.07.41,1.75.41s1.24-.13,1.72-.41c.48-.28.87-.67,1.17-1.16.31-.49.54-1.06.69-1.7.15-.65.22-1.34.22-2.08v-.33c0-.73-.07-1.41-.22-2.05-.15-.65-.38-1.21-.69-1.7-.3-.5-.7-.89-1.19-1.17-.48-.29-1.06-.44-1.73-.44s-1.24.15-1.72.44c-.48.28-.87.67-1.17,1.17-.3.49-.53,1.06-.67,1.7-.15.64-.22,1.32-.22,2.05ZM300.92,173.41v-7.8c0-.57-.1-1.07-.3-1.48s-.5-.74-.91-.97c-.41-.23-.92-.34-1.55-.34-.55,0-1.04.09-1.45.28-.41.19-.72.45-.94.8-.22.33-.33.72-.33,1.16h-4.14c0-.7.17-1.36.5-1.99.33-.63.81-1.2,1.42-1.69.62-.5,1.37-.89,2.23-1.17.88-.28,1.85-.42,2.94-.42,1.28,0,2.42.22,3.42.66,1.01.43,1.8,1.07,2.38,1.94.58.87.88,1.95.88,3.27v7.38c0,.84.05,1.57.16,2.17.11.59.28,1.11.5,1.55v.27h-4.2c-.2-.43-.35-.97-.45-1.62-.1-.67-.16-1.32-.16-1.97ZM301.5,166.7l.03,2.45h-2.61c-.65,0-1.21.07-1.7.2-.49.12-.89.31-1.2.56-.31.24-.55.53-.7.88-.16.33-.23.71-.23,1.14s.09.79.28,1.12c.2.33.48.6.84.8.38.19.81.28,1.31.28.73,0,1.36-.15,1.91-.44.54-.3.96-.67,1.27-1.09.3-.43.46-.83.48-1.22l1.19,1.78c-.15.43-.36.88-.66,1.36-.29.48-.67.93-1.12,1.34s-1.01.76-1.66,1.03c-.65.27-1.4.41-2.25.41-1.09,0-2.07-.22-2.94-.66-.86-.44-1.55-1.04-2.05-1.8-.5-.76-.75-1.62-.75-2.59,0-.9.17-1.69.5-2.38.33-.69.83-1.27,1.48-1.74.66-.48,1.47-.84,2.44-1.08.98-.25,2.1-.38,3.36-.38h2.78ZM313.17,153v24h-4.14v-24h4.14ZM326.41,172.38c0-.35-.09-.67-.28-.95-.19-.28-.54-.54-1.06-.77-.51-.24-1.26-.46-2.25-.67-.87-.19-1.68-.42-2.42-.7-.74-.28-1.38-.62-1.91-1.01-.53-.41-.95-.88-1.25-1.42-.29-.55-.44-1.19-.44-1.91s.15-1.36.45-1.97c.3-.62.74-1.17,1.31-1.64.57-.48,1.27-.85,2.09-1.12.82-.28,1.75-.42,2.78-.42,1.44,0,2.67.24,3.7.7,1.04.47,1.84,1.12,2.39,1.94.55.81.83,1.73.83,2.75h-4.12c0-.45-.1-.85-.31-1.22-.2-.36-.51-.66-.92-.88-.42-.23-.94-.34-1.58-.34-.57,0-1.06.09-1.45.28-.39.19-.68.43-.88.73s-.3.63-.3,1c0,.27.05.52.16.73.11.21.3.4.55.58.25.18.59.34,1.02.49.44.15.97.29,1.61.42,1.26.25,2.36.58,3.3,1,.95.41,1.69.95,2.22,1.62.53.68.8,1.54.8,2.59,0,.75-.16,1.44-.48,2.06-.32.62-.79,1.15-1.41,1.61-.61.46-1.35.82-2.2,1.08-.85.25-1.82.37-2.89.37-1.55,0-2.86-.28-3.94-.83-1.07-.56-1.89-1.27-2.44-2.12-.55-.86-.83-1.76-.83-2.69h3.95c.03.66.21,1.18.53,1.58s.73.68,1.22.86c.5.17,1.03.25,1.58.25.62,0,1.15-.08,1.58-.25.43-.18.75-.41.97-.7.22-.3.33-.65.33-1.03ZM346.25,172.94l3.7-12.84h2.62l-.78,4.44-3.73,12.47h-2.27l.45-4.06ZM344.2,160.09l2.78,12.88.25,4.03h-2.61l-4.44-16.91h4.02ZM356.02,172.78l2.72-12.69h4l-4.41,16.91h-2.61l.3-4.22ZM352.98,160.09l3.67,12.72.48,4.19h-2.27l-3.77-12.47-.77-4.44h2.64ZM369.55,160.09v16.91h-4.14v-16.91h4.14ZM365.12,155.67c0-.61.21-1.12.62-1.53.43-.41,1-.61,1.72-.61s1.29.2,1.7.61c.43.41.64.92.64,1.53s-.21,1.11-.64,1.52c-.42.41-.98.61-1.7.61s-1.29-.2-1.72-.61c-.42-.41-.62-.91-.62-1.52ZM381.48,160.09v2.97h-9.69v-2.97h9.69ZM374.39,155.94h4.14v16.19c0,.5.07.88.2,1.16.14.27.34.45.61.55.27.09.59.14.97.14.27,0,.52-.02.75-.05.23-.03.42-.06.58-.09l.02,3.09c-.34.11-.73.21-1.17.28-.43.07-.91.11-1.45.11-.93,0-1.74-.16-2.44-.47-.7-.32-1.24-.84-1.62-1.55-.39-.72-.58-1.67-.58-2.84v-16.51ZM388.28,153v24h-4.14v-24h4.14ZM387.62,167.94h-1.22c0-1.18.16-2.26.47-3.25.31-.99.76-1.85,1.33-2.58.57-.74,1.26-1.31,2.05-1.72.8-.41,1.69-.61,2.66-.61.83,0,1.59.12,2.27.36.69.23,1.28.6,1.77,1.11.49.51.86,1.18,1.12,2,.27.81.41,1.8.41,2.97v10.78h-4.16v-10.81c0-.78-.11-1.4-.34-1.84-.23-.46-.56-.79-.98-.99-.42-.2-.93-.3-1.55-.3-.67,0-1.24.13-1.72.39-.48.25-.88.6-1.19,1.05-.3.45-.53.96-.69,1.55-.15.58-.22,1.21-.22,1.89ZM419.39,173.41v-7.8c0-.57-.1-1.07-.3-1.48s-.5-.74-.91-.97c-.41-.23-.92-.34-1.55-.34-.55,0-1.04.09-1.45.28-.41.19-.72.45-.94.8-.22.33-.33.72-.33,1.16h-4.14c0-.7.17-1.36.5-1.99.33-.63.81-1.2,1.42-1.69.62-.5,1.37-.89,2.23-1.17.87-.28,1.85-.42,2.94-.42,1.28,0,2.42.22,3.42.66,1.01.43,1.8,1.07,2.38,1.94.58.87.88,1.95.88,3.27v7.38c0,.84.05,1.57.16,2.17.11.59.28,1.11.5,1.55v.27h-4.2c-.2-.43-.35-.97-.45-1.62-.1-.67-.16-1.32-.16-1.97ZM419.97,166.7l.03,2.45h-2.61c-.65,0-1.21.07-1.7.2-.49.12-.89.31-1.2.56-.31.24-.55.53-.7.88-.16.33-.23.71-.23,1.14s.09.79.28,1.12c.2.33.48.6.84.8.38.19.81.28,1.31.28.73,0,1.36-.15,1.91-.44.54-.3.96-.67,1.27-1.09.3-.43.46-.83.48-1.22l1.19,1.78c-.15.43-.36.88-.66,1.36-.29.48-.67.93-1.12,1.34s-1.01.76-1.66,1.03c-.65.27-1.4.41-2.25.41-1.09,0-2.07-.22-2.94-.66-.86-.44-1.55-1.04-2.05-1.8-.5-.76-.75-1.62-.75-2.59,0-.9.17-1.69.5-2.38.33-.69.83-1.27,1.48-1.74.66-.48,1.47-.84,2.44-1.08.98-.25,2.1-.38,3.36-.38h2.78ZM439.36,163.34v20.16h-4.14v-23.41h3.83l.31,3.25ZM450.22,168.38v.33c0,1.23-.15,2.37-.44,3.42-.28,1.04-.7,1.95-1.25,2.73-.55.77-1.24,1.38-2.06,1.81-.81.43-1.75.64-2.81.64s-1.95-.2-2.72-.59c-.77-.41-1.42-.98-1.95-1.72-.53-.74-.96-1.6-1.28-2.58-.31-.99-.55-2.07-.7-3.23v-1.05c.16-1.24.39-2.37.7-3.38.32-1.02.75-1.9,1.28-2.64.53-.75,1.18-1.33,1.94-1.73.77-.41,1.67-.61,2.7-.61s2.02.2,2.83.61c.82.41,1.52.99,2.08,1.75.56.76.98,1.67,1.27,2.72.28,1.05.42,2.22.42,3.52ZM446.08,168.7v-.33c0-.75-.07-1.44-.2-2.08-.14-.65-.34-1.21-.62-1.69-.28-.49-.65-.87-1.09-1.14-.45-.27-.99-.41-1.62-.41s-1.18.11-1.64.31c-.46.21-.83.51-1.12.89-.29.38-.52.84-.69,1.38-.16.52-.26,1.1-.31,1.73v2.59c.09.77.28,1.46.55,2.08.27.61.67,1.1,1.19,1.47.53.36,1.22.55,2.06.55.64,0,1.18-.14,1.63-.42.45-.28.81-.67,1.09-1.16.28-.5.48-1.07.61-1.72.12-.65.19-1.33.19-2.06ZM460.83,177.31c-1.28,0-2.43-.21-3.45-.62-1.02-.42-1.89-1-2.61-1.74-.71-.75-1.26-1.62-1.64-2.61-.38-1-.56-2.07-.56-3.22v-.62c0-1.3.19-2.48.56-3.55.38-1.07.91-2,1.59-2.76.69-.77,1.51-1.37,2.47-1.78.96-.42,2.02-.62,3.17-.62s2.26.2,3.17.61c.92.39,1.68.96,2.3,1.69.61.73,1.08,1.6,1.39,2.62.31,1.01.47,2.13.47,3.36v1.74h-13.25v-2.84h9.19v-.31c-.02-.66-.15-1.26-.38-1.8-.23-.55-.58-.99-1.06-1.31-.48-.33-1.1-.5-1.86-.5-.61,0-1.15.14-1.61.41-.45.26-.82.63-1.12,1.12-.29.48-.51,1.05-.66,1.72-.15.67-.22,1.41-.22,2.22v.62c0,.71.09,1.37.28,1.97.2.6.48,1.13.86,1.58.39.44.84.78,1.38,1.03.54.24,1.16.36,1.84.36.86,0,1.65-.17,2.34-.5.71-.34,1.32-.85,1.84-1.51l2.08,2.16c-.35.52-.83,1.02-1.44,1.5-.59.48-1.31.87-2.16,1.17-.84.29-1.82.44-2.92.44ZM474.58,163.55v13.45h-4.12v-16.91h3.91l.22,3.45ZM479.72,159.98l-.06,3.84c-.23-.04-.49-.07-.78-.09-.28-.02-.55-.03-.8-.03-.64,0-1.19.09-1.67.27-.48.17-.88.41-1.2.73-.31.32-.55.72-.72,1.19-.17.46-.26.98-.28,1.56l-.89-.11c0-1.07.11-2.07.33-2.99.22-.92.54-1.72.95-2.41.42-.69.94-1.22,1.56-1.59.64-.38,1.36-.58,2.19-.58.23,0,.47.02.73.06.27.03.48.08.64.14ZM491.28,172.38c0-.35-.09-.67-.28-.95-.19-.28-.54-.54-1.06-.77-.51-.24-1.26-.46-2.25-.67-.88-.19-1.68-.42-2.42-.7-.74-.28-1.38-.62-1.91-1.01-.53-.41-.95-.88-1.25-1.42-.29-.55-.44-1.19-.44-1.91s.15-1.36.45-1.97c.3-.62.74-1.17,1.31-1.64.57-.48,1.27-.85,2.09-1.12.82-.28,1.75-.42,2.78-.42,1.44,0,2.67.24,3.7.7,1.04.47,1.84,1.12,2.39,1.94.55.81.83,1.73.83,2.75h-4.12c0-.45-.1-.85-.31-1.22-.2-.36-.51-.66-.92-.88-.42-.23-.94-.34-1.58-.34-.57,0-1.06.09-1.45.28-.39.19-.68.43-.88.73s-.3.63-.3,1c0,.27.05.52.16.73.11.21.3.4.55.58.25.18.59.34,1.02.49.44.15.97.29,1.61.42,1.26.25,2.36.58,3.3,1,.95.41,1.69.95,2.22,1.62.53.68.8,1.54.8,2.59,0,.75-.16,1.44-.48,2.06-.32.62-.79,1.15-1.41,1.61-.61.46-1.35.82-2.2,1.08-.85.25-1.82.37-2.89.37-1.55,0-2.86-.28-3.94-.83-1.07-.56-1.89-1.27-2.44-2.12-.55-.86-.83-1.76-.83-2.69h3.95c.03.66.21,1.18.53,1.58s.73.68,1.22.86c.5.17,1.03.25,1.58.25.62,0,1.15-.08,1.58-.25.43-.18.75-.41.97-.7.22-.3.33-.65.33-1.03ZM497.72,168.72v-.33c0-1.24.18-2.38.53-3.42.35-1.05.87-1.96,1.55-2.74.68-.77,1.51-1.37,2.48-1.8.98-.44,2.09-.66,3.34-.66s2.4.22,3.38.66c.99.43,1.82,1.03,2.5,1.8.68.77,1.19,1.68,1.55,2.74.35,1.04.53,2.18.53,3.42v.33c0,1.23-.18,2.37-.53,3.42-.35,1.04-.87,1.95-1.55,2.73-.68.77-1.51,1.37-2.48,1.8-.98.43-2.1.64-3.36.64s-2.37-.21-3.36-.64c-.99-.43-1.82-1.03-2.5-1.8-.68-.78-1.19-1.69-1.55-2.73-.35-1.05-.53-2.19-.53-3.42ZM501.84,168.39v.33c0,.74.07,1.43.22,2.08.15.65.37,1.21.67,1.7s.69.88,1.17,1.16c.49.27,1.07.41,1.75.41s1.24-.13,1.72-.41c.48-.28.87-.67,1.17-1.16.31-.49.54-1.06.69-1.7.15-.65.22-1.34.22-2.08v-.33c0-.73-.07-1.41-.22-2.05-.15-.65-.38-1.21-.69-1.7-.3-.5-.7-.89-1.19-1.17-.48-.29-1.06-.44-1.73-.44s-1.24.15-1.72.44c-.48.28-.87.67-1.17,1.17-.3.49-.53,1.06-.67,1.7-.15.64-.22,1.32-.22,2.05ZM520.62,163.7v13.3h-4.12v-16.91h3.88l.25,3.61ZM519.97,167.94h-1.22c.01-1.23.18-2.34.5-3.34s.78-1.86,1.36-2.58c.59-.72,1.3-1.27,2.11-1.66.81-.38,1.72-.58,2.72-.58.81,0,1.55.11,2.2.34.66.23,1.22.59,1.69,1.09.48.5.84,1.16,1.09,1.97.26.8.39,1.79.39,2.97v10.84h-4.16v-10.88c0-.77-.11-1.38-.34-1.83-.22-.45-.54-.77-.97-.95-.42-.19-.93-.28-1.55-.28s-1.19.13-1.67.39c-.47.25-.86.6-1.19,1.05-.31.45-.55.96-.72,1.55-.17.58-.25,1.21-.25,1.89ZM543.77,173.41v-7.8c0-.57-.1-1.07-.3-1.48s-.5-.74-.91-.97c-.41-.23-.92-.34-1.55-.34-.55,0-1.04.09-1.45.28-.41.19-.72.45-.94.8-.22.33-.33.72-.33,1.16h-4.14c0-.7.17-1.36.5-1.99.33-.63.81-1.2,1.42-1.69.62-.5,1.37-.89,2.23-1.17.88-.28,1.85-.42,2.94-.42,1.28,0,2.42.22,3.42.66,1.01.43,1.8,1.07,2.38,1.94.58.87.88,1.95.88,3.27v7.38c0,.84.05,1.57.16,2.17.11.59.28,1.11.5,1.55v.27h-4.2c-.2-.43-.35-.97-.45-1.62-.1-.67-.16-1.32-.16-1.97ZM544.34,166.7l.03,2.45h-2.61c-.65,0-1.21.07-1.7.2-.49.12-.89.31-1.2.56-.31.24-.55.53-.7.88-.16.33-.23.71-.23,1.14s.09.79.28,1.12c.2.33.48.6.84.8.38.19.81.28,1.31.28.73,0,1.36-.15,1.91-.44.54-.3.96-.67,1.27-1.09.3-.43.46-.83.48-1.22l1.19,1.78c-.15.43-.36.88-.66,1.36-.29.48-.67.93-1.12,1.34s-1.01.76-1.66,1.03c-.65.27-1.4.41-2.25.41-1.09,0-2.07-.22-2.94-.66-.86-.44-1.55-1.04-2.05-1.8-.5-.76-.75-1.62-.75-2.59,0-.9.17-1.69.5-2.38.33-.69.83-1.27,1.48-1.74.66-.48,1.47-.84,2.44-1.08.98-.25,2.1-.38,3.36-.38h2.78ZM556.02,153v24h-4.14v-24h4.14ZM575.92,160.09v2.97h-9.69v-2.97h9.69ZM568.83,155.94h4.14v16.19c0,.5.07.88.2,1.16.14.27.34.45.61.55.27.09.59.14.97.14.27,0,.52-.02.75-.05.23-.03.42-.06.58-.09l.02,3.09c-.34.11-.73.21-1.17.28-.43.07-.91.11-1.45.11-.93,0-1.74-.16-2.44-.47-.7-.32-1.24-.84-1.62-1.55-.39-.72-.58-1.67-.58-2.84v-16.51ZM582.8,163.55v13.45h-4.12v-16.91h3.91l.22,3.45ZM587.94,159.98l-.06,3.84c-.23-.04-.49-.07-.78-.09-.28-.02-.55-.03-.8-.03-.64,0-1.19.09-1.67.27-.48.17-.88.41-1.2.73-.31.32-.55.72-.72,1.19-.17.46-.26.98-.28,1.56l-.89-.11c0-1.07.11-2.07.33-2.99.22-.92.54-1.72.95-2.41.42-.69.94-1.22,1.56-1.59.64-.38,1.36-.58,2.19-.58.23,0,.47.02.73.06.27.03.48.08.64.14ZM598.98,173.41v-7.8c0-.57-.1-1.07-.3-1.48-.2-.42-.5-.74-.91-.97-.41-.23-.92-.34-1.55-.34-.55,0-1.04.09-1.45.28-.41.19-.72.45-.94.8-.22.33-.33.72-.33,1.16h-4.14c0-.7.17-1.36.5-1.99.33-.63.81-1.2,1.42-1.69.62-.5,1.37-.89,2.23-1.17.88-.28,1.85-.42,2.94-.42,1.28,0,2.42.22,3.42.66,1.01.43,1.8,1.07,2.38,1.94.58.87.88,1.95.88,3.27v7.38c0,.84.05,1.57.16,2.17.11.59.28,1.11.5,1.55v.27h-4.2c-.2-.43-.35-.97-.45-1.62-.1-.67-.16-1.32-.16-1.97ZM599.56,166.7l.03,2.45h-2.61c-.65,0-1.21.07-1.7.2-.49.12-.89.31-1.2.56-.31.24-.55.53-.7.88-.16.33-.23.71-.23,1.14s.09.79.28,1.12c.2.33.48.6.84.8.38.19.81.28,1.31.28.73,0,1.36-.15,1.91-.44.54-.3.96-.67,1.27-1.09.3-.43.46-.83.48-1.22l1.19,1.78c-.15.43-.36.88-.66,1.36-.29.48-.67.93-1.12,1.34-.46.42-1.01.76-1.66,1.03-.65.27-1.4.41-2.25.41-1.09,0-2.07-.22-2.94-.66-.86-.44-1.55-1.04-2.05-1.8-.5-.76-.75-1.62-.75-2.59,0-.9.17-1.69.5-2.38.33-.69.83-1.27,1.48-1.74.66-.48,1.47-.84,2.44-1.08.98-.25,2.1-.38,3.36-.38h2.78ZM611.23,160.09v16.91h-4.14v-16.91h4.14ZM606.81,155.67c0-.61.21-1.12.63-1.53.43-.41,1-.61,1.72-.61s1.29.2,1.7.61c.43.41.64.92.64,1.53s-.21,1.11-.64,1.52c-.42.41-.98.61-1.7.61s-1.29-.2-1.72-.61c-.42-.41-.63-.91-.63-1.52ZM619.22,163.7v13.3h-4.12v-16.91h3.88l.25,3.61ZM618.56,167.94h-1.22c.01-1.23.18-2.34.5-3.34s.78-1.86,1.36-2.58c.59-.72,1.3-1.27,2.11-1.66.81-.38,1.72-.58,2.72-.58.81,0,1.55.11,2.2.34.66.23,1.22.59,1.69,1.09.48.5.84,1.16,1.09,1.97.26.8.39,1.79.39,2.97v10.84h-4.16v-10.88c0-.77-.11-1.38-.34-1.83-.22-.45-.54-.77-.97-.95-.42-.19-.93-.28-1.55-.28s-1.19.13-1.67.39c-.47.25-.86.6-1.19,1.05-.31.45-.55.96-.72,1.55-.17.58-.25,1.21-.25,1.89ZM640.64,177.31c-1.28,0-2.43-.21-3.45-.62-1.02-.42-1.89-1-2.61-1.74-.71-.75-1.26-1.62-1.64-2.61-.38-1-.56-2.07-.56-3.22v-.62c0-1.3.19-2.48.56-3.55.37-1.07.91-2,1.59-2.76.69-.77,1.51-1.37,2.47-1.78.96-.42,2.02-.62,3.17-.62s2.26.2,3.17.61c.92.39,1.68.96,2.3,1.69.61.73,1.08,1.6,1.39,2.62.31,1.01.47,2.13.47,3.36v1.74h-13.25v-2.84h9.19v-.31c-.02-.66-.15-1.26-.38-1.8-.23-.55-.58-.99-1.06-1.31-.48-.33-1.1-.5-1.86-.5-.61,0-1.15.14-1.61.41-.45.26-.82.63-1.12,1.12-.29.48-.51,1.05-.66,1.72-.15.67-.22,1.41-.22,2.22v.62c0,.71.09,1.37.28,1.97.2.6.48,1.13.86,1.58.39.44.84.78,1.38,1.03.54.24,1.16.36,1.84.36.86,0,1.65-.17,2.34-.5.71-.34,1.32-.85,1.84-1.51l2.08,2.16c-.35.52-.83,1.02-1.44,1.5-.59.48-1.31.87-2.16,1.17-.84.29-1.82.44-2.92.44ZM654.39,163.55v13.45h-4.12v-16.91h3.91l.22,3.45ZM659.53,159.98l-.06,3.84c-.23-.04-.49-.07-.78-.09-.28-.02-.55-.03-.8-.03-.64,0-1.19.09-1.67.27-.48.17-.88.41-1.2.73-.31.32-.55.72-.72,1.19-.17.46-.26.98-.28,1.56l-.89-.11c0-1.07.11-2.07.33-2.99.22-.92.54-1.72.95-2.41.42-.69.94-1.22,1.56-1.59.64-.38,1.36-.58,2.19-.58.23,0,.47.02.73.06.27.03.48.08.64.14ZM66.56,210.94l3.7-12.84h2.62l-.78,4.44-3.73,12.47h-2.27l.45-4.06ZM64.52,198.09l2.78,12.88.25,4.03h-2.61l-4.44-16.91h4.02ZM76.33,210.78l2.72-12.69h4l-4.41,16.91h-2.61l.3-4.22ZM73.3,198.09l3.67,12.72.48,4.19h-2.27l-3.77-12.47-.77-4.44h2.64ZM89.53,191v24h-4.14v-24h4.14ZM88.88,205.94h-1.22c0-1.18.16-2.26.47-3.25.31-.99.76-1.85,1.33-2.58.57-.74,1.26-1.31,2.05-1.72.8-.41,1.69-.61,2.66-.61.83,0,1.59.12,2.27.36.69.23,1.28.6,1.77,1.11s.86,1.18,1.12,2c.27.81.41,1.8.41,2.97v10.78h-4.16v-10.81c0-.78-.11-1.4-.34-1.84-.23-.46-.56-.79-.98-.99-.42-.2-.93-.3-1.55-.3-.67,0-1.24.13-1.72.39-.48.25-.88.6-1.19,1.05-.3.45-.53.96-.69,1.55-.15.58-.22,1.21-.22,1.89ZM102.62,206.72v-.33c0-1.24.18-2.38.53-3.42.35-1.05.87-1.96,1.55-2.74.68-.77,1.5-1.37,2.49-1.8.98-.44,2.09-.66,3.34-.66s2.4.22,3.38.66c.99.43,1.82,1.03,2.5,1.8.68.77,1.19,1.68,1.55,2.74.35,1.04.53,2.18.53,3.42v.33c0,1.23-.18,2.37-.53,3.42-.35,1.04-.87,1.95-1.55,2.73-.68.77-1.5,1.37-2.48,1.8-.98.43-2.1.64-3.36.64s-2.37-.21-3.36-.64c-.99-.43-1.82-1.03-2.5-1.8-.68-.78-1.19-1.69-1.55-2.73-.35-1.05-.53-2.19-.53-3.42ZM106.75,206.39v.33c0,.74.07,1.43.22,2.08.15.65.37,1.21.67,1.7s.69.88,1.17,1.16c.49.27,1.07.41,1.75.41s1.24-.13,1.72-.41c.48-.28.87-.67,1.17-1.16.31-.49.54-1.06.69-1.7.15-.65.22-1.34.22-2.08v-.33c0-.73-.07-1.41-.22-2.05-.15-.65-.38-1.21-.69-1.7-.3-.5-.7-.89-1.19-1.17-.48-.29-1.06-.44-1.74-.44s-1.24.15-1.72.44c-.48.28-.87.67-1.17,1.17-.3.49-.53,1.06-.67,1.7-.15.64-.22,1.32-.22,2.05ZM136.39,212.06c.58,0,1.1-.11,1.56-.34.46-.23.82-.55,1.09-.97.28-.42.43-.9.45-1.45h3.89c-.02,1.15-.34,2.17-.97,3.08s-1.46,1.62-2.5,2.16c-1.03.52-2.19.78-3.47.78s-2.44-.22-3.41-.66c-.97-.44-1.78-1.05-2.42-1.83-.63-.78-1.12-1.69-1.44-2.72-.31-1.03-.47-2.13-.47-3.31v-.5c0-1.18.16-2.28.47-3.31.32-1.03.8-1.94,1.44-2.72.65-.78,1.45-1.39,2.42-1.83.97-.44,2.1-.66,3.39-.66,1.36,0,2.56.27,3.59.8,1.04.53,1.85,1.28,2.44,2.25.59.97.9,2.11.92,3.42h-3.89c-.02-.6-.16-1.15-.41-1.62s-.6-.87-1.06-1.16c-.46-.29-1.01-.44-1.67-.44-.7,0-1.28.15-1.75.44-.46.29-.82.69-1.08,1.2-.25.5-.43,1.06-.53,1.69-.09.62-.14,1.26-.14,1.94v.5c0,.69.05,1.34.14,1.97.1.62.28,1.19.53,1.69.26.49.62.88,1.08,1.17.47.29,1.06.44,1.78.44ZM155.45,211.41v-7.8c0-.57-.1-1.07-.3-1.48-.2-.42-.5-.74-.91-.97-.41-.23-.92-.34-1.55-.34-.55,0-1.04.09-1.45.28-.41.19-.72.45-.94.8-.22.33-.33.72-.33,1.16h-4.14c0-.7.17-1.36.5-1.99.33-.63.81-1.2,1.42-1.69.62-.5,1.37-.89,2.23-1.17.88-.28,1.85-.42,2.94-.42,1.28,0,2.42.22,3.42.66,1.01.43,1.8,1.07,2.38,1.94.58.87.88,1.95.88,3.27v7.38c0,.84.05,1.57.16,2.17.11.59.28,1.11.5,1.55v.27h-4.2c-.2-.43-.35-.97-.45-1.62-.1-.67-.16-1.32-.16-1.97ZM156.03,204.7l.03,2.45h-2.61c-.65,0-1.21.07-1.7.2-.49.12-.89.31-1.2.56-.31.24-.55.53-.7.88-.16.33-.24.71-.24,1.14s.09.79.28,1.12c.2.33.48.6.84.8.38.19.81.28,1.31.28.73,0,1.36-.15,1.91-.44.54-.3.96-.67,1.27-1.09.3-.43.46-.83.48-1.22l1.19,1.78c-.15.43-.37.88-.66,1.36-.29.48-.67.93-1.12,1.34-.46.42-1.01.76-1.66,1.03-.65.27-1.4.41-2.25.41-1.09,0-2.07-.22-2.94-.66-.87-.44-1.55-1.04-2.05-1.8-.5-.76-.75-1.62-.75-2.59,0-.9.17-1.69.5-2.38.33-.69.83-1.27,1.48-1.74.66-.48,1.47-.84,2.44-1.08.98-.25,2.1-.38,3.36-.38h2.78ZM167.45,201.55v13.45h-4.12v-16.91h3.91l.22,3.45ZM172.59,197.98l-.06,3.84c-.23-.04-.49-.07-.78-.09-.28-.02-.55-.03-.8-.03-.64,0-1.19.09-1.67.27-.48.17-.88.41-1.2.73-.31.32-.55.72-.72,1.19-.17.46-.26.98-.28,1.56l-.89-.11c0-1.07.11-2.07.33-2.99.22-.92.54-1.72.95-2.41.42-.69.94-1.22,1.56-1.59.64-.38,1.36-.58,2.19-.58.23,0,.47.02.73.06.27.03.49.08.64.14ZM182.14,215.31c-1.28,0-2.43-.21-3.45-.62-1.02-.42-1.89-1-2.61-1.74-.71-.75-1.26-1.62-1.64-2.61-.38-1-.56-2.07-.56-3.22v-.62c0-1.3.19-2.48.56-3.55.37-1.07.91-2,1.59-2.76.69-.77,1.51-1.37,2.47-1.78.96-.42,2.02-.62,3.17-.62s2.26.2,3.17.61c.92.39,1.68.96,2.3,1.69.61.73,1.08,1.6,1.39,2.62.31,1.01.47,2.13.47,3.36v1.74h-13.25v-2.84h9.19v-.31c-.02-.66-.15-1.26-.38-1.8-.23-.55-.58-.99-1.06-1.31-.48-.33-1.1-.5-1.86-.5-.62,0-1.15.14-1.61.41-.45.26-.82.63-1.12,1.12-.29.48-.51,1.05-.66,1.72-.15.67-.22,1.41-.22,2.22v.62c0,.71.09,1.37.28,1.97.2.6.49,1.13.86,1.58.39.44.84.78,1.38,1.03.54.24,1.16.36,1.84.36.86,0,1.64-.17,2.34-.5.71-.34,1.32-.85,1.84-1.51l2.08,2.16c-.35.52-.83,1.02-1.44,1.5-.59.48-1.31.87-2.16,1.17-.84.29-1.82.44-2.92.44ZM201.06,210.38c0-.35-.09-.67-.28-.95-.19-.28-.54-.54-1.06-.77-.51-.24-1.26-.46-2.25-.67-.88-.19-1.68-.42-2.42-.7-.74-.28-1.38-.62-1.91-1.01-.53-.41-.95-.88-1.25-1.42-.29-.55-.44-1.19-.44-1.91s.15-1.36.45-1.97c.3-.62.74-1.17,1.31-1.64.57-.48,1.27-.85,2.09-1.12.82-.28,1.75-.42,2.78-.42,1.44,0,2.67.24,3.7.7,1.04.47,1.84,1.12,2.39,1.94.55.81.83,1.73.83,2.75h-4.12c0-.45-.11-.85-.31-1.22-.2-.36-.51-.66-.92-.88-.42-.23-.94-.34-1.58-.34-.57,0-1.06.09-1.45.28-.38.19-.68.43-.88.73s-.3.63-.3,1c0,.27.05.52.16.73.12.21.3.4.55.58.25.18.59.34,1.02.49.44.15.97.29,1.61.42,1.26.25,2.36.58,3.3,1,.95.41,1.69.95,2.22,1.62.53.68.8,1.54.8,2.59,0,.75-.16,1.44-.49,2.06-.32.62-.79,1.15-1.41,1.61-.61.46-1.35.82-2.2,1.08-.85.25-1.82.37-2.89.37-1.55,0-2.86-.28-3.94-.83-1.07-.56-1.89-1.27-2.44-2.12-.55-.86-.83-1.76-.83-2.69h3.95c.03.66.21,1.18.53,1.58.32.4.73.68,1.22.86.5.17,1.03.25,1.58.25.62,0,1.15-.08,1.58-.25.43-.18.75-.41.97-.7.22-.3.33-.65.33-1.03Z"/>
  <path class="cls-4" d="M70.04,292.29c-1.95,0-3.62-.41-5-1.24-1.39-.83-2.45-1.98-3.19-3.45-.74-1.47-1.11-3.17-1.11-5.11v-.6c0-2,.37-3.75,1.11-5.25.74-1.51,1.77-2.69,3.1-3.54,1.34-.86,2.91-1.29,4.72-1.29,1.46,0,2.79.19,4.01.57,1.22.38,2.28.95,3.19,1.69v4.33h-2.8l-.51-2.72c-.37-.3-.87-.54-1.48-.71-.61-.18-1.32-.27-2.12-.27-1.11,0-2.08.3-2.91.9-.83.59-1.47,1.43-1.93,2.5-.45,1.08-.67,2.32-.67,3.75v.63c0,1.4.22,2.62.66,3.66.45,1.03,1.09,1.83,1.93,2.41.85.57,1.88.85,3.1.85.75,0,1.42-.07,2.01-.21.6-.14,1.1-.3,1.5-.51v-3.65l-3.05-.2v-2.64h6.78v7.99c-.82.61-1.84,1.12-3.05,1.52-1.2.39-2.63.59-4.29.59ZM86.69,292.29c-1.4,0-2.63-.31-3.68-.93-1.04-.63-1.85-1.49-2.42-2.58-.57-1.1-.86-2.36-.86-3.77v-.56c0-1.45.27-2.74.82-3.87.56-1.13,1.33-2.02,2.32-2.67.99-.65,2.14-.97,3.45-.97s2.47.27,3.38.81c.91.53,1.6,1.29,2.06,2.28.46.99.7,2.19.7,3.58v2.07h-8.87l-.03.08c.04.71.2,1.34.48,1.9.28.55.68.98,1.19,1.3s1.13.48,1.86.48c.77,0,1.48-.1,2.12-.3.65-.2,1.26-.5,1.85-.89l1.07,2.31c-.59.49-1.34.91-2.26,1.24-.91.33-1.97.49-3.17.49ZM83.62,283.14h5.33v-.36c0-.62-.09-1.16-.27-1.61-.18-.46-.46-.83-.85-1.08-.37-.26-.86-.38-1.46-.38-.55,0-1.02.15-1.41.45-.39.29-.7.69-.93,1.2-.23.5-.38,1.07-.45,1.71l.04.07ZM100.04,292.27c-1.31,0-2.33-.36-3.06-1.09-.72-.74-1.08-1.9-1.08-3.5v-7.83h-2.09v-2.64h2.09v-3.61h3.71v3.61h2.83v2.64h-2.83v7.83c0,.6.13,1.03.38,1.3.25.26.6.4,1.03.4.24,0,.5-.02.78-.05.28-.04.52-.07.71-.11l.36,2.64c-.41.12-.87.22-1.37.3-.49.08-.98.12-1.45.12ZM118.19,292.29c-1.4,0-2.62-.31-3.65-.94-1.02-.64-1.81-1.52-2.37-2.64-.56-1.12-.83-2.41-.83-3.87v-.45c0-1.44.28-2.72.83-3.84.57-1.12,1.36-2,2.38-2.64,1.02-.65,2.22-.97,3.61-.97,1.3,0,2.43.21,3.38.62.96.41,1.73.9,2.32,1.48v4.1h-2.82l-.52-2.64c-.24-.24-.54-.43-.9-.57s-.75-.22-1.16-.22c-.74,0-1.36.2-1.87.59-.5.38-.88.93-1.15,1.63-.26.69-.38,1.52-.38,2.48v.45c0,1.03.14,1.89.41,2.57.27.67.65,1.18,1.12,1.52.48.34,1.02.51,1.61.51.75,0,1.35-.2,1.82-.59.46-.4.77-.96.93-1.68h3.19l.04.08c-.13,1-.42,1.89-.89,2.65-.46.76-1.1,1.34-1.94,1.76-.83.42-1.88.63-3.16.63ZM132.38,292.29c-1.58,0-2.81-.5-3.71-1.49-.88-1-1.33-2.56-1.33-4.66v-6.26l-1.64-.41v-2.26h5.36v8.95c0,1.17.19,2,.58,2.49.39.48.99.73,1.79.73.66,0,1.24-.13,1.74-.4.49-.27.89-.64,1.19-1.14v-7.97l-1.8-.41v-2.26h5.52v12.14l1.76.41v2.24h-5.04l-.25-1.94c-.46.72-1.05,1.27-1.76,1.65-.7.38-1.5.57-2.41.57ZM149.66,292.29c-1.08,0-2.1-.1-3.04-.3-.93-.21-1.84-.51-2.73-.92l-.04-4.05h2.62l.52,2.13c.36.16.73.29,1.12.38s.83.14,1.33.14c.94,0,1.6-.15,1.98-.46.39-.32.59-.72.59-1.19s-.2-.85-.62-1.17c-.41-.34-1.2-.63-2.38-.88-1.76-.37-3.05-.93-3.88-1.68-.83-.76-1.24-1.72-1.24-2.9,0-.82.21-1.56.63-2.23.43-.66,1.07-1.2,1.91-1.6.85-.41,1.91-.62,3.18-.62,1.12,0,2.13.11,3.02.34.9.23,1.66.52,2.28.88l.07,3.91h-2.61l-.42-1.94c-.26-.19-.57-.34-.93-.44-.35-.11-.76-.16-1.2-.16-.73,0-1.3.15-1.71.46-.4.31-.6.7-.6,1.18,0,.27.07.52.2.75.14.23.4.44.79.64.4.19.98.37,1.75.55,1.88.43,3.23,1,4.06,1.71.84.71,1.26,1.68,1.26,2.9,0,1.35-.49,2.45-1.48,3.29-.98.85-2.46,1.27-4.44,1.27ZM163.18,292.27c-1.31,0-2.33-.36-3.06-1.09-.72-.74-1.08-1.9-1.08-3.5v-7.83h-2.09v-2.64h2.09v-3.61h3.71v3.61h2.83v2.64h-2.83v7.83c0,.6.13,1.03.38,1.3.26.26.6.4,1.02.4.24,0,.5-.02.78-.05.28-.04.52-.07.71-.11l.35,2.64c-.41.12-.87.22-1.37.3-.49.08-.97.12-1.45.12ZM174.19,292.29c-1.45,0-2.69-.32-3.72-.96s-1.82-1.52-2.38-2.65c-.56-1.14-.83-2.45-.83-3.92v-.29c0-1.47.28-2.77.83-3.9.56-1.13,1.35-2.02,2.38-2.67s2.26-.97,3.69-.97,2.68.32,3.71.97c1.03.64,1.82,1.52,2.36,2.65.56,1.13.83,2.43.83,3.91v.29c0,1.48-.28,2.78-.83,3.92-.55,1.13-1.33,2.01-2.36,2.65s-2.26.96-3.68.96ZM174.19,289.43c.72,0,1.31-.2,1.78-.59.47-.39.82-.94,1.05-1.64.23-.71.34-1.53.34-2.45v-.29c0-.91-.11-1.72-.34-2.42-.23-.7-.58-1.25-1.05-1.64-.47-.4-1.08-.6-1.8-.6s-1.33.2-1.81.6c-.46.39-.81.94-1.04,1.64-.23.7-.34,1.51-.34,2.42v.29c0,.93.11,1.74.34,2.45.23.7.58,1.25,1.05,1.64s1.08.59,1.82.59ZM182.77,292v-2.24l2-.41v-9.48l-2.15-.41v-2.26h5.58l.16,1.94c.48-.7,1.08-1.24,1.8-1.63.72-.39,1.55-.59,2.5-.59s1.78.21,2.46.64c.68.43,1.2,1.07,1.54,1.93.46-.8,1.05-1.43,1.79-1.89.74-.46,1.6-.68,2.58-.68,1.48,0,2.64.5,3.49,1.5.85,1,1.27,2.52,1.27,4.57v6.34l2,.41v2.24h-7.55v-2.24l1.83-.41v-6.36c0-1.18-.2-1.99-.59-2.45-.38-.46-.95-.7-1.71-.7-.68,0-1.25.21-1.71.63-.46.42-.77.96-.94,1.61v7.26l1.74.41v2.24h-7.18v-2.24l1.74-.41v-6.36c0-1.13-.2-1.94-.59-2.42-.39-.48-.97-.72-1.72-.72-.62,0-1.15.13-1.59.38-.44.25-.79.6-1.07,1.07v8.05l1.83.41v2.24h-7.53ZM209.17,292v-2.24l1.98-.41v-9.48l-2.15-.41v-2.26h5.87v12.14l1.98.41v2.24h-7.68ZM211.02,273.97v-3.3h3.85v3.3h-3.85ZM218.62,292v-2.26l7.78-9.9h-4.32l-.42,2.51h-2.73v-5.15h11.95v2.41l-7.45,9.69h4.63l.55-2.67h2.64v5.36h-12.62ZM240.03,292.29c-1.4,0-2.63-.31-3.68-.93-1.04-.63-1.85-1.49-2.42-2.58-.58-1.1-.86-2.36-.86-3.77v-.56c0-1.45.27-2.74.82-3.87.56-1.13,1.33-2.02,2.32-2.67.99-.65,2.14-.97,3.45-.97s2.47.27,3.38.81c.91.53,1.6,1.29,2.07,2.28.46.99.7,2.19.7,3.58v2.07h-8.87l-.03.08c.04.71.2,1.34.48,1.9.28.55.68.98,1.19,1.3.51.32,1.13.48,1.86.48.77,0,1.48-.1,2.12-.3.65-.2,1.26-.5,1.85-.89l1.07,2.31c-.59.49-1.34.91-2.26,1.24-.91.33-1.97.49-3.17.49ZM236.97,283.14h5.33v-.36c0-.62-.09-1.16-.27-1.61-.18-.46-.46-.83-.85-1.08-.37-.26-.86-.38-1.46-.38-.55,0-1.02.15-1.41.45-.39.29-.7.69-.93,1.2-.23.5-.38,1.07-.45,1.71l.04.07ZM253.52,292.29c-1.17,0-2.19-.3-3.03-.9-.85-.6-1.5-1.45-1.96-2.53-.45-1.09-.67-2.37-.67-3.81v-.29c0-1.56.22-2.93.67-4.1.46-1.18,1.11-2.09,1.96-2.73.85-.66,1.85-.98,3.02-.98.84,0,1.57.16,2.19.49.62.32,1.15.78,1.6,1.38v-5.47l-2.15-.41v-2.26h5.87v18.68l1.98.41v2.24h-5.2l-.29-1.79c-.46.68-1.03,1.2-1.68,1.56-.66.35-1.43.52-2.31.52ZM254.6,289.38c.61,0,1.14-.13,1.59-.4.45-.27.82-.64,1.11-1.14v-6.4c-.28-.5-.65-.89-1.09-1.18-.45-.28-.97-.42-1.57-.42-.7,0-1.28.21-1.74.63-.45.41-.78.98-1,1.72-.21.73-.31,1.58-.31,2.56v.29c0,1.34.24,2.4.71,3.17.47.77,1.24,1.16,2.31,1.16ZM276.22,292l-3.53-12.22-1.78-.31v-2.26h6.93v2.26l-1.61.3,1.5,6.08.32,1.27h.08l.42-1.27,3.06-8.64h2.6l2.97,8.74.44,1.38h.08l.42-1.38,1.7-6.18-1.75-.3v-2.26h6.79v2.26l-1.71.31-3.77,12.22h-3.2l-2.76-7.66-.53-1.79h-.08s-.52,1.8-.52,1.8l-2.79,7.64h-3.28ZM302.95,292.29c-1.45,0-2.69-.32-3.72-.96-1.03-.64-1.82-1.52-2.38-2.65-.56-1.14-.83-2.45-.83-3.92v-.29c0-1.47.28-2.77.83-3.9.56-1.13,1.35-2.02,2.38-2.67,1.03-.65,2.26-.97,3.69-.97s2.67.32,3.71.97c1.03.64,1.82,1.52,2.36,2.65.56,1.13.83,2.43.83,3.91v.29c0,1.48-.28,2.78-.83,3.92-.55,1.13-1.33,2.01-2.36,2.65-1.03.64-2.26.96-3.68.96ZM302.95,289.43c.72,0,1.31-.2,1.78-.59.47-.39.82-.94,1.05-1.64.23-.71.34-1.53.34-2.45v-.29c0-.91-.11-1.72-.34-2.42s-.58-1.25-1.05-1.64c-.47-.4-1.08-.6-1.8-.6s-1.33.2-1.8.6c-.46.39-.81.94-1.04,1.64s-.34,1.51-.34,2.42v.29c0,.93.11,1.74.34,2.45.23.7.58,1.25,1.05,1.64s1.08.59,1.82.59ZM311.89,292v-2.24l1.98-.41v-9.48l-2.13-.41v-2.26h5.58l.16,1.85.03.31c.37-.79.84-1.39,1.39-1.8.56-.42,1.21-.63,1.97-.63.25,0,.51.02.79.07.29.04.54.09.74.15l-.42,3.43-1.96-.11c-.59-.03-1.08.08-1.46.33-.37.25-.7.6-.97,1.05v7.49l1.98.41v2.24h-7.68ZM322.88,292v-2.24l2-.41v-16.01l-2.15-.41v-2.26h5.85v18.68l1.83.41v2.24h-7.53ZM332.32,292v-2.16l1.22-.25-.03-.05-3.23-4.29,2.31-2.52,5.09,6.62,1.9.41v2.24h-7.26ZM328.21,287.91l-1.72-2.21,6.43-5.99.04-.06-1.53-.2v-2.24h7.41v2.26l-1.9.46-8.72,7.98ZM347.22,292.29c-1.45,0-2.69-.32-3.72-.96s-1.82-1.52-2.38-2.65c-.56-1.14-.83-2.45-.83-3.92v-.29c0-1.47.28-2.77.83-3.9.56-1.13,1.35-2.02,2.38-2.67s2.26-.97,3.69-.97,2.68.32,3.7.97c1.03.64,1.82,1.52,2.37,2.65.56,1.13.83,2.43.83,3.91v.29c0,1.48-.28,2.78-.83,3.92-.55,1.13-1.34,2.01-2.37,2.65-1.03.64-2.26.96-3.68.96ZM347.22,289.43c.72,0,1.31-.2,1.78-.59.47-.39.83-.94,1.05-1.64.23-.71.34-1.53.34-2.45v-.29c0-.91-.11-1.72-.34-2.42s-.58-1.25-1.05-1.64c-.47-.4-1.08-.6-1.8-.6s-1.33.2-1.8.6c-.46.39-.81.94-1.04,1.64s-.34,1.51-.34,2.42v.29c0,.93.11,1.74.34,2.45.23.7.58,1.25,1.05,1.64s1.08.59,1.82.59ZM362.26,292.29c-1.58,0-2.81-.5-3.7-1.49-.88-1-1.33-2.56-1.33-4.66v-6.26l-1.64-.41v-2.26h5.36v8.95c0,1.17.19,2,.57,2.49.39.48.99.73,1.79.73.67,0,1.24-.13,1.74-.4.49-.27.89-.64,1.19-1.14v-7.97l-1.8-.41v-2.26h5.52v12.14l1.76.41v2.24h-5.04l-.25-1.94c-.46.72-1.05,1.27-1.76,1.65-.7.38-1.5.57-2.41.57ZM378.95,292.27c-1.31,0-2.33-.36-3.06-1.09-.72-.74-1.08-1.9-1.08-3.5v-7.83h-2.09v-2.64h2.09v-3.61h3.71v3.61h2.83v2.64h-2.83v7.83c0,.6.13,1.03.38,1.3.26.26.6.4,1.03.4.24,0,.5-.02.78-.05.28-.04.52-.07.71-.11l.36,2.64c-.41.12-.87.22-1.37.3-.49.08-.98.12-1.45.12ZM389.57,292.29c-1.08,0-2.1-.1-3.04-.3-.93-.21-1.84-.51-2.73-.92l-.04-4.05h2.62l.52,2.13c.36.16.73.29,1.12.38s.83.14,1.33.14c.94,0,1.6-.15,1.98-.46.39-.32.59-.72.59-1.19s-.2-.85-.61-1.17c-.41-.34-1.2-.63-2.38-.88-1.76-.37-3.05-.93-3.88-1.68-.83-.76-1.24-1.72-1.24-2.9,0-.82.21-1.56.63-2.23.43-.66,1.07-1.2,1.91-1.6.85-.41,1.91-.62,3.18-.62,1.12,0,2.13.11,3.02.34.9.23,1.66.52,2.28.88l.07,3.91h-2.61l-.42-1.94c-.26-.19-.57-.34-.93-.44-.36-.11-.76-.16-1.2-.16-.73,0-1.3.15-1.71.46-.4.31-.6.7-.6,1.18,0,.27.07.52.2.75s.4.44.79.64c.4.19.98.37,1.75.55,1.88.43,3.23,1,4.06,1.71.84.71,1.26,1.68,1.26,2.9,0,1.35-.49,2.45-1.48,3.29-.98.85-2.46,1.27-4.44,1.27ZM399.09,296.83l-1.87-1.07c.36-.64.65-1.3.85-1.98.2-.67.3-1.42.3-2.24v-2.8h3.39v2.64c-.01,1.03-.27,2.03-.78,2.99-.5.98-1.13,1.8-1.89,2.46ZM417.9,292.29c-1.4,0-2.63-.31-3.68-.93-1.04-.63-1.85-1.49-2.42-2.58-.57-1.1-.86-2.36-.86-3.77v-.56c0-1.45.27-2.74.82-3.87.56-1.13,1.33-2.02,2.32-2.67.99-.65,2.14-.97,3.44-.97s2.47.27,3.38.81c.91.53,1.6,1.29,2.07,2.28.46.99.7,2.19.7,3.58v2.07h-8.87l-.03.08c.04.71.2,1.34.48,1.9.28.55.68.98,1.19,1.3.51.32,1.13.48,1.86.48.77,0,1.48-.1,2.12-.3.65-.2,1.26-.5,1.85-.89l1.07,2.31c-.59.49-1.34.91-2.26,1.24-.91.33-1.97.49-3.17.49ZM414.84,283.14h5.33v-.36c0-.62-.09-1.16-.27-1.61-.18-.46-.46-.83-.85-1.08-.37-.26-.86-.38-1.46-.38-.55,0-1.02.15-1.41.45-.39.29-.7.69-.93,1.2-.23.5-.38,1.07-.45,1.71l.04.07ZM425.14,292v-2.24l1.83-.27,4.28-4.91-4.07-4.85-1.71-.26v-2.26h7v2.17l-1.22.18,2.34,3.02,2.31-3.02-1.34-.18v-2.17h6.78v2.26l-1.61.26-3.84,4.72,4.31,5.05,1.75.27v2.24h-7.3v-2.16l1.38-.18-2.48-3.06-2.43,3.08,1.34.16v2.16h-7.31ZM443.13,297.69v-2.26l1.97-.41v-15.15l-2.16-.41v-2.26h5.54l.21,1.74c.45-.65.99-1.14,1.63-1.49s1.39-.52,2.27-.52c1.19,0,2.21.33,3.06.98.86.65,1.51,1.56,1.97,2.73.46,1.18.68,2.54.68,4.1v.29c0,1.45-.23,2.72-.68,3.81-.46,1.08-1.11,1.93-1.97,2.53-.85.6-1.87.9-3.08.9-.82,0-1.54-.15-2.16-.44-.62-.29-1.15-.72-1.6-1.29v4.46l2.02.41v2.26h-7.7ZM451.44,289.43c1.08,0,1.86-.4,2.37-1.19.5-.79.75-1.86.75-3.2v-.29c0-.98-.11-1.83-.34-2.56-.22-.74-.56-1.31-1.03-1.72-.46-.42-1.06-.63-1.78-.63-.59,0-1.11.14-1.56.41-.44.26-.79.64-1.05,1.12v6.63c.26.46.61.81,1.05,1.05.45.25.98.37,1.58.37ZM467.42,292.29c-1.4,0-2.63-.31-3.68-.93-1.04-.63-1.85-1.49-2.42-2.58-.57-1.1-.86-2.36-.86-3.77v-.56c0-1.45.27-2.74.82-3.87.56-1.13,1.33-2.02,2.32-2.67.99-.65,2.14-.97,3.45-.97s2.46.27,3.38.81c.91.53,1.6,1.29,2.06,2.28.47.99.7,2.19.7,3.58v2.07h-8.87l-.03.08c.04.71.2,1.34.48,1.9.28.55.68.98,1.19,1.3.51.32,1.13.48,1.86.48.77,0,1.48-.1,2.12-.3.65-.2,1.26-.5,1.85-.89l1.07,2.31c-.59.49-1.35.91-2.26,1.24-.91.33-1.97.49-3.17.49ZM464.36,283.14h5.33v-.36c0-.62-.09-1.16-.27-1.61-.18-.46-.46-.83-.85-1.08-.37-.26-.86-.38-1.46-.38-.55,0-1.02.15-1.41.45-.39.29-.7.69-.93,1.2-.23.5-.38,1.07-.45,1.71l.04.07ZM475.32,292v-2.24l1.98-.41v-9.48l-2.13-.41v-2.26h5.58l.16,1.85.03.31c.37-.79.84-1.39,1.4-1.8.56-.42,1.21-.63,1.97-.63.25,0,.51.02.79.07.29.04.54.09.74.15l-.42,3.43-1.95-.11c-.59-.03-1.08.08-1.46.33-.37.25-.7.6-.97,1.05v7.49l1.98.41v2.24h-7.68ZM493.17,292.27c-1.31,0-2.33-.36-3.06-1.09-.72-.74-1.08-1.9-1.08-3.5v-7.83h-2.09v-2.64h2.09v-3.61h3.71v3.61h2.83v2.64h-2.83v7.83c0,.6.13,1.03.38,1.3.26.26.6.4,1.03.4.24,0,.5-.02.78-.05.28-.04.52-.07.71-.11l.35,2.64c-.41.12-.86.22-1.37.3-.49.08-.97.12-1.45.12ZM510.93,297.98c-.74,0-1.56-.1-2.48-.3-.91-.19-1.71-.46-2.41-.81l.74-2.68c.61.27,1.27.49,1.97.64.71.16,1.38.25,2,.25,1.1,0,1.91-.3,2.42-.92.51-.61.77-1.46.77-2.56v-1.07c-.45.57-.98,1-1.59,1.3-.61.3-1.31.45-2.11.45-1.2,0-2.24-.3-3.1-.9-.87-.6-1.53-1.45-2-2.53-.46-1.09-.68-2.37-.68-3.81v-.29c0-1.56.23-2.93.68-4.1.46-1.18,1.12-2.09,1.97-2.73.86-.66,1.88-.98,3.08-.98.89,0,1.66.19,2.31.56.66.37,1.21.89,1.67,1.57l.27-1.86h3.23v14.41c0,1.29-.27,2.42-.81,3.36-.54.96-1.31,1.7-2.32,2.21-1,.52-2.21.78-3.61.78ZM511.28,289.38c.61,0,1.14-.13,1.57-.38.44-.26.8-.62,1.08-1.09v-6.51c-.27-.48-.63-.86-1.08-1.13-.45-.27-.97-.41-1.56-.41-.72,0-1.31.21-1.78.63-.46.41-.79.98-1.01,1.72-.22.73-.33,1.58-.33,2.56v.29c0,1.34.24,2.4.72,3.17.49.77,1.29,1.16,2.38,1.16ZM517.17,279.94l-1.59-2.73h3.83v2.26l-2.24.48ZM527,292.29c-1.58,0-2.81-.5-3.71-1.49-.88-1-1.33-2.56-1.33-4.66v-6.26l-1.64-.41v-2.26h5.36v8.95c0,1.17.19,2,.58,2.49.39.48.99.73,1.79.73.66,0,1.24-.13,1.74-.4.49-.27.89-.64,1.19-1.14v-7.97l-1.8-.41v-2.26h5.52v12.14l1.76.41v2.24h-5.05l-.25-1.94c-.47.72-1.05,1.27-1.76,1.65-.7.38-1.5.57-2.41.57ZM537.9,292v-2.24l1.98-.41v-9.48l-2.15-.41v-2.26h5.87v12.14l1.98.41v2.24h-7.68ZM539.75,273.97v-3.3h3.86v3.3h-3.86ZM552.75,292.29c-1.18,0-2.19-.3-3.03-.9-.85-.6-1.5-1.45-1.96-2.53-.45-1.09-.67-2.37-.67-3.81v-.29c0-1.56.22-2.93.67-4.1.46-1.18,1.11-2.09,1.96-2.73.85-.66,1.85-.98,3.02-.98.84,0,1.57.16,2.19.49.62.32,1.15.78,1.6,1.38v-5.47l-2.15-.41v-2.26h5.86v18.68l1.98.41v2.24h-5.2l-.29-1.79c-.46.68-1.02,1.2-1.68,1.56-.66.35-1.43.52-2.31.52ZM553.83,289.38c.61,0,1.14-.13,1.59-.4.45-.27.82-.64,1.11-1.14v-6.4c-.28-.5-.65-.89-1.09-1.18-.45-.28-.97-.42-1.57-.42-.7,0-1.28.21-1.74.63-.45.41-.78.98-1,1.72-.21.73-.31,1.58-.31,2.56v.29c0,1.34.24,2.4.71,3.17.47.77,1.24,1.16,2.31,1.16ZM568.55,292.29c-1.49,0-2.66-.39-3.51-1.16-.85-.78-1.27-1.86-1.27-3.21s.57-2.52,1.7-3.39c1.14-.88,2.78-1.31,4.92-1.31h2.1v-1.16c0-.75-.22-1.35-.67-1.8-.44-.46-1.08-.68-1.94-.68-.47,0-.88.06-1.26.18-.36.11-.69.27-.98.48l-.32,1.98h-2.71l-.03-3.75c.75-.46,1.57-.82,2.46-1.09.9-.28,1.9-.42,3.01-.42,1.9,0,3.4.45,4.5,1.34,1.1.88,1.65,2.16,1.65,3.82v6.89c0,.19.03.38.05.56l1.52.22v2.24h-4.72c-.1-.28-.2-.57-.29-.86-.08-.3-.14-.6-.18-.9-.48.61-1.06,1.11-1.74,1.49-.66.37-1.43.56-2.31.56ZM569.47,289.48c.63,0,1.22-.15,1.76-.44.56-.29.98-.66,1.26-1.11v-2.41h-2.12c-.96,0-1.68.22-2.17.67-.48.44-.72.96-.72,1.56,0,.55.17.97.52,1.27.35.3.84.45,1.48.45ZM579.23,292v-2.24l1.98-.41v-9.48l-2.13-.41v-2.26h5.58l.18,2.13c.49-.76,1.1-1.35,1.83-1.76.74-.43,1.57-.64,2.5-.64,1.49,0,2.65.47,3.49,1.41.85.93,1.27,2.39,1.27,4.39v6.62l1.98.41v2.24h-7.53v-2.24l1.82-.41v-6.59c0-1.06-.21-1.8-.63-2.24-.42-.45-1.04-.67-1.87-.67-.62,0-1.16.14-1.63.41-.45.26-.83.64-1.13,1.13v7.96l1.75.41v2.24h-7.45ZM604.09,292.29c-1.4,0-2.62-.31-3.65-.94-1.02-.64-1.81-1.52-2.37-2.64-.56-1.12-.83-2.41-.83-3.87v-.45c0-1.44.28-2.72.83-3.84.57-1.12,1.36-2,2.38-2.64,1.02-.65,2.22-.97,3.61-.97,1.3,0,2.43.21,3.38.62.96.41,1.73.9,2.32,1.48v4.1h-2.82l-.52-2.64c-.24-.24-.54-.43-.9-.57-.36-.15-.75-.22-1.16-.22-.74,0-1.36.2-1.87.59-.5.38-.88.93-1.15,1.63-.26.69-.38,1.52-.38,2.48v.45c0,1.03.14,1.89.41,2.57.27.67.65,1.18,1.12,1.52.48.34,1.02.51,1.61.51.75,0,1.35-.2,1.82-.59.46-.4.77-.96.93-1.68h3.18l.04.08c-.13,1-.42,1.89-.89,2.65-.46.76-1.1,1.34-1.94,1.76-.83.42-1.88.63-3.16.63ZM619.04,292.29c-1.4,0-2.63-.31-3.68-.93-1.04-.63-1.84-1.49-2.42-2.58-.57-1.1-.86-2.36-.86-3.77v-.56c0-1.45.27-2.74.82-3.87.56-1.13,1.33-2.02,2.33-2.67.99-.65,2.14-.97,3.45-.97s2.46.27,3.38.81c.91.53,1.6,1.29,2.06,2.28.47.99.7,2.19.7,3.58v2.07h-8.87l-.03.08c.04.71.2,1.34.48,1.9.28.55.68.98,1.19,1.3s1.13.48,1.86.48c.77,0,1.48-.1,2.12-.3.65-.2,1.26-.5,1.84-.89l1.07,2.31c-.59.49-1.35.91-2.26,1.24-.91.33-1.97.49-3.17.49ZM615.98,283.14h5.33v-.36c0-.62-.09-1.16-.27-1.61-.18-.46-.47-.83-.85-1.08-.37-.26-.86-.38-1.46-.38-.55,0-1.02.15-1.41.45-.39.29-.7.69-.93,1.2-.23.5-.38,1.07-.45,1.71l.04.07ZM628.4,296.83l-1.87-1.07c.36-.64.65-1.3.85-1.98.2-.67.3-1.42.3-2.24v-2.8h3.39v2.64c-.01,1.03-.27,2.03-.78,2.99-.5.98-1.13,1.8-1.89,2.46ZM645.11,292.29c-1.48,0-2.66-.39-3.51-1.16-.85-.78-1.27-1.86-1.27-3.21s.57-2.52,1.7-3.39c1.14-.88,2.78-1.31,4.92-1.31h2.11v-1.16c0-.75-.22-1.35-.67-1.8-.44-.46-1.09-.68-1.94-.68-.46,0-.88.06-1.26.18-.37.11-.69.27-.99.48l-.31,1.98h-2.71l-.03-3.75c.75-.46,1.57-.82,2.46-1.09.9-.28,1.9-.42,3.01-.42,1.9,0,3.4.45,4.5,1.34,1.1.88,1.65,2.16,1.65,3.82v6.89c.01.19.03.38.05.56l1.52.22v2.24h-4.72c-.1-.28-.2-.57-.29-.86-.08-.3-.14-.6-.18-.9-.48.61-1.06,1.11-1.74,1.49-.67.37-1.44.56-2.31.56ZM646.03,289.48c.63,0,1.22-.15,1.76-.44.56-.29.98-.66,1.26-1.11v-2.41h-2.12c-.96,0-1.68.22-2.17.67-.48.44-.73.96-.73,1.56,0,.55.17.97.52,1.27.35.3.84.45,1.48.45ZM655.79,292v-2.24l1.98-.41v-9.48l-2.13-.41v-2.26h5.58l.18,2.13c.49-.76,1.1-1.35,1.83-1.76.74-.43,1.57-.64,2.5-.64,1.49,0,2.65.47,3.49,1.41.85.93,1.27,2.39,1.27,4.39v6.62l1.98.41v2.24h-7.53v-2.24l1.82-.41v-6.59c0-1.06-.21-1.8-.63-2.24-.42-.45-1.04-.67-1.87-.67-.62,0-1.16.14-1.63.41-.46.26-.83.64-1.14,1.13v7.96l1.75.41v2.24h-7.45ZM679.46,292.29c-1.18,0-2.19-.3-3.03-.9-.85-.6-1.5-1.45-1.96-2.53-.45-1.09-.67-2.37-.67-3.81v-.29c0-1.56.22-2.93.67-4.1.46-1.18,1.11-2.09,1.96-2.73.85-.66,1.85-.98,3.02-.98.84,0,1.57.16,2.19.49.62.32,1.15.78,1.6,1.38v-5.47l-2.15-.41v-2.26h5.86v18.68l1.98.41v2.24h-5.2l-.29-1.79c-.46.68-1.02,1.2-1.68,1.56-.66.35-1.43.52-2.31.52ZM680.54,289.38c.61,0,1.14-.13,1.59-.4.45-.27.82-.64,1.11-1.14v-6.4c-.28-.5-.65-.89-1.09-1.18-.45-.28-.97-.42-1.57-.42-.7,0-1.28.21-1.74.63-.45.41-.78.98-1,1.72-.21.73-.31,1.58-.31,2.56v.29c0,1.34.24,2.4.71,3.17.47.77,1.24,1.16,2.31,1.16ZM66.58,329.27c-1.31,0-2.33-.36-3.06-1.09-.72-.74-1.08-1.9-1.08-3.5v-7.83h-2.09v-2.64h2.09v-3.61h3.71v3.61h2.83v2.64h-2.83v7.83c0,.6.13,1.03.38,1.3.26.26.6.4,1.03.4.24,0,.5-.02.78-.05.28-.04.52-.07.71-.11l.36,2.64c-.41.12-.87.22-1.37.3-.49.08-.98.12-1.45.12ZM70.69,329v-2.24l1.98-.41v-16.01l-2.16-.41v-2.26h5.87v8.43c.47-.68,1.06-1.22,1.75-1.6.7-.38,1.49-.57,2.38-.57,1.51,0,2.7.49,3.57,1.48.88.98,1.31,2.49,1.31,4.54v6.4l1.98.41v2.24h-7.53v-2.24l1.83-.41v-6.43c0-1.1-.21-1.89-.64-2.36-.43-.47-1.06-.71-1.89-.71-.58,0-1.11.13-1.59.38-.47.25-.87.6-1.18,1.07v8.05l1.83.41v2.24h-7.52ZM95.63,329.29c-1.4,0-2.63-.31-3.68-.93-1.04-.63-1.85-1.49-2.42-2.58-.57-1.1-.86-2.36-.86-3.77v-.56c0-1.45.27-2.74.82-3.87.56-1.13,1.33-2.02,2.32-2.67.99-.65,2.14-.97,3.45-.97s2.47.27,3.38.81c.91.53,1.6,1.29,2.06,2.28.47.99.7,2.19.7,3.58v2.07h-8.87l-.03.08c.04.71.2,1.34.48,1.9.28.55.68.98,1.19,1.3s1.13.48,1.86.48c.77,0,1.48-.1,2.12-.3.65-.2,1.26-.5,1.85-.89l1.07,2.31c-.59.49-1.34.91-2.26,1.24-.91.33-1.97.49-3.17.49ZM92.57,320.14h5.33v-.36c0-.62-.09-1.16-.27-1.61-.18-.46-.46-.83-.85-1.08-.37-.26-.86-.38-1.46-.38-.55,0-1.02.15-1.41.45-.39.29-.7.69-.93,1.2-.23.5-.38,1.07-.45,1.71l.04.07ZM110.07,329v-2.24l2-.41v-9.48l-2.15-.41v-2.26h5.58l.16,1.94c.48-.7,1.08-1.24,1.81-1.63.72-.39,1.55-.59,2.5-.59s1.78.21,2.46.64c.68.43,1.2,1.07,1.54,1.93.46-.8,1.05-1.43,1.79-1.89.74-.46,1.6-.68,2.58-.68,1.48,0,2.64.5,3.49,1.5.85,1,1.27,2.52,1.27,4.57v6.34l2,.41v2.24h-7.55v-2.24l1.83-.41v-6.36c0-1.18-.2-1.99-.59-2.45-.38-.46-.95-.7-1.71-.7-.68,0-1.25.21-1.71.63-.46.42-.77.96-.94,1.61v7.26l1.74.41v2.24h-7.18v-2.24l1.74-.41v-6.36c0-1.13-.19-1.94-.59-2.42-.39-.48-.97-.72-1.72-.72-.62,0-1.15.13-1.59.38-.44.25-.79.6-1.07,1.07v8.05l1.83.41v2.24h-7.53ZM143.4,329.29c-1.45,0-2.69-.32-3.72-.96-1.03-.64-1.82-1.52-2.38-2.65-.56-1.14-.83-2.45-.83-3.92v-.29c0-1.47.28-2.77.83-3.9.56-1.13,1.35-2.02,2.38-2.67,1.03-.65,2.26-.97,3.69-.97s2.68.32,3.71.97c1.03.64,1.82,1.52,2.36,2.65.56,1.13.83,2.43.83,3.91v.29c0,1.48-.28,2.78-.83,3.92-.55,1.13-1.33,2.01-2.36,2.65s-2.26.96-3.68.96ZM143.4,326.43c.72,0,1.31-.2,1.78-.59.47-.39.83-.94,1.05-1.64.23-.71.34-1.53.34-2.45v-.29c0-.91-.11-1.72-.34-2.42-.23-.7-.58-1.25-1.05-1.64-.47-.4-1.08-.6-1.8-.6s-1.33.2-1.81.6c-.46.39-.81.94-1.04,1.64-.23.7-.34,1.51-.34,2.42v.29c0,.93.11,1.74.34,2.45.23.7.58,1.25,1.05,1.64s1.08.59,1.82.59ZM157.71,329.27c-1.31,0-2.33-.36-3.06-1.09-.72-.74-1.08-1.9-1.08-3.5v-7.83h-2.09v-2.64h2.09v-3.61h3.7v3.61h2.83v2.64h-2.83v7.83c0,.6.13,1.03.38,1.3.25.26.6.4,1.03.4.24,0,.5-.02.78-.05.28-.04.52-.07.71-.11l.36,2.64c-.41.12-.87.22-1.37.3-.49.08-.98.12-1.45.12ZM162.23,329v-2.24l1.98-.41v-9.48l-2.15-.41v-2.26h5.86v12.14l1.98.41v2.24h-7.68ZM164.07,310.97v-3.3h3.86v3.3h-3.86ZM177,329l-4.63-12.29-1.59-.25v-2.26h6.97v2.26l-1.63.27,2.45,7.07.34,1.16h.08l.4-1.16,2.57-7.07-1.85-.27v-2.26h6.96v2.26l-1.63.27-4.74,12.26h-3.71ZM192.99,329.29c-1.48,0-2.66-.39-3.51-1.16-.85-.78-1.27-1.86-1.27-3.21s.57-2.52,1.69-3.39c1.14-.88,2.78-1.31,4.92-1.31h2.11v-1.16c0-.75-.22-1.35-.67-1.8-.44-.46-1.08-.68-1.94-.68-.46,0-.88.06-1.26.18-.36.11-.69.27-.98.48l-.31,1.98h-2.71l-.03-3.75c.75-.46,1.57-.82,2.46-1.09.9-.28,1.9-.42,3.01-.42,1.9,0,3.4.45,4.5,1.34,1.1.88,1.65,2.16,1.65,3.82v6.89c0,.19.03.38.05.56l1.52.22v2.24h-4.72c-.1-.28-.2-.57-.29-.86-.08-.3-.14-.6-.18-.9-.48.61-1.06,1.11-1.74,1.49-.66.37-1.44.56-2.31.56ZM193.9,326.48c.63,0,1.22-.15,1.76-.44.56-.29.98-.66,1.26-1.11v-2.41h-2.12c-.96,0-1.68.22-2.17.67-.48.44-.72.96-.72,1.56,0,.55.17.97.52,1.27.35.3.84.45,1.48.45ZM209.09,329.27c-1.31,0-2.33-.36-3.06-1.09-.72-.74-1.08-1.9-1.08-3.5v-7.83h-2.09v-2.64h2.09v-3.61h3.71v3.61h2.83v2.64h-2.83v7.83c0,.6.13,1.03.38,1.3.26.26.6.4,1.02.4.24,0,.5-.02.78-.05.28-.04.52-.07.71-.11l.36,2.64c-.41.12-.87.22-1.37.3-.49.08-.98.12-1.45.12ZM213.6,329v-2.24l1.98-.41v-9.48l-2.15-.41v-2.26h5.87v12.14l1.98.41v2.24h-7.68ZM215.45,310.97v-3.3h3.86v3.3h-3.86ZM229.72,329.29c-1.45,0-2.69-.32-3.72-.96s-1.82-1.52-2.38-2.65c-.56-1.14-.83-2.45-.83-3.92v-.29c0-1.47.28-2.77.83-3.9.56-1.13,1.35-2.02,2.38-2.67s2.26-.97,3.69-.97,2.67.32,3.7.97c1.03.64,1.82,1.52,2.37,2.65.56,1.13.83,2.43.83,3.91v.29c0,1.48-.28,2.78-.83,3.92-.55,1.13-1.34,2.01-2.37,2.65s-2.25.96-3.68.96ZM229.72,326.43c.72,0,1.31-.2,1.78-.59.47-.39.82-.94,1.05-1.64.23-.71.34-1.53.34-2.45v-.29c0-.91-.11-1.72-.34-2.42-.23-.7-.58-1.25-1.05-1.64-.47-.4-1.08-.6-1.8-.6s-1.33.2-1.8.6c-.47.39-.81.94-1.04,1.64-.23.7-.34,1.51-.34,2.42v.29c0,.93.11,1.74.34,2.45.23.7.58,1.25,1.05,1.64.47.39,1.08.59,1.82.59ZM238.31,329v-2.24l1.98-.41v-9.48l-2.13-.41v-2.26h5.58l.18,2.13c.49-.76,1.1-1.35,1.83-1.76.74-.43,1.57-.64,2.5-.64,1.49,0,2.65.47,3.49,1.41.85.93,1.27,2.39,1.27,4.39v6.62l1.98.41v2.24h-7.53v-2.24l1.82-.41v-6.59c0-1.06-.21-1.8-.63-2.24-.42-.45-1.04-.67-1.87-.67-.62,0-1.16.14-1.63.41-.46.26-.83.64-1.14,1.13v7.96l1.75.41v2.24h-7.45ZM267.23,334.98c-.31,0-.66-.03-1.04-.1-.37-.05-.72-.12-1.03-.2l.42-2.76c.16.03.35.05.57.07.23.02.41.03.55.03.58,0,1.08-.16,1.48-.49s.71-.79.93-1.39l.4-1.05-5-12.35-1.78-.26v-2.26h7.52v2.26l-1.82.27,2.45,6.71.37,1.05h.08l2.9-7.78-1.8-.26v-2.26h7.05v2.26l-1.63.23-5.69,14.52c-.27.69-.62,1.32-1.04,1.89-.41.57-.93,1.03-1.57,1.37-.63.34-1.4.51-2.32.51ZM287.31,329.29c-1.45,0-2.69-.32-3.72-.96s-1.82-1.52-2.38-2.65c-.56-1.14-.83-2.45-.83-3.92v-.29c0-1.47.28-2.77.83-3.9.56-1.13,1.35-2.02,2.38-2.67s2.26-.97,3.69-.97,2.67.32,3.7.97c1.03.64,1.82,1.52,2.37,2.65.56,1.13.83,2.43.83,3.91v.29c0,1.48-.28,2.78-.83,3.92-.55,1.13-1.34,2.01-2.37,2.65s-2.26.96-3.68.96ZM287.31,326.43c.72,0,1.31-.2,1.78-.59.47-.39.83-.94,1.05-1.64.23-.71.34-1.53.34-2.45v-.29c0-.91-.11-1.72-.34-2.42s-.58-1.25-1.05-1.64c-.47-.4-1.08-.6-1.8-.6s-1.33.2-1.8.6c-.46.39-.81.94-1.04,1.64-.23.7-.34,1.51-.34,2.42v.29c0,.93.11,1.74.34,2.45.23.7.58,1.25,1.05,1.64s1.08.59,1.82.59ZM302.35,329.29c-1.58,0-2.81-.5-3.7-1.49-.89-1-1.33-2.56-1.33-4.66v-6.26l-1.64-.41v-2.26h5.36v8.95c0,1.17.19,2,.57,2.49.39.48.99.73,1.79.73.67,0,1.24-.13,1.74-.4.49-.27.89-.64,1.19-1.14v-7.97l-1.8-.41v-2.26h5.52v12.14l1.76.41v2.24h-5.04l-.25-1.94c-.46.72-1.05,1.27-1.76,1.65-.7.38-1.5.57-2.41.57ZM320.12,329v-2.24l1.98-.41v-9.48l-2.13-.41v-2.26h5.58l.18,2.13c.49-.76,1.1-1.35,1.83-1.76.74-.43,1.57-.64,2.5-.64,1.48,0,2.65.47,3.49,1.41.85.93,1.27,2.39,1.27,4.39v6.62l1.98.41v2.24h-7.53v-2.24l1.82-.41v-6.59c0-1.06-.21-1.8-.63-2.24-.42-.45-1.04-.67-1.87-.67-.62,0-1.16.14-1.63.41-.46.26-.83.64-1.14,1.13v7.96l1.75.41v2.24h-7.45ZM345.09,329.29c-1.4,0-2.63-.31-3.68-.93-1.04-.63-1.85-1.49-2.42-2.58-.57-1.1-.86-2.36-.86-3.77v-.56c0-1.45.27-2.74.82-3.87.56-1.13,1.33-2.02,2.32-2.67.99-.65,2.14-.97,3.45-.97s2.46.27,3.38.81c.91.53,1.6,1.29,2.06,2.28.46.99.7,2.19.7,3.58v2.07h-8.87l-.03.08c.04.71.2,1.34.48,1.9.28.55.68.98,1.19,1.3.51.32,1.13.48,1.86.48.77,0,1.48-.1,2.12-.3.65-.2,1.26-.5,1.85-.89l1.07,2.31c-.59.49-1.35.91-2.26,1.24-.91.33-1.97.49-3.17.49ZM342.02,320.14h5.33v-.36c0-.62-.09-1.16-.27-1.61-.18-.46-.46-.83-.85-1.08-.37-.26-.86-.38-1.46-.38-.55,0-1.02.15-1.41.45-.39.29-.7.69-.93,1.2-.23.5-.38,1.07-.45,1.71l.04.07ZM359.91,329.29c-1.4,0-2.63-.31-3.68-.93-1.04-.63-1.85-1.49-2.42-2.58-.57-1.1-.86-2.36-.86-3.77v-.56c0-1.45.27-2.74.82-3.87.56-1.13,1.33-2.02,2.32-2.67.99-.65,2.14-.97,3.44-.97s2.47.27,3.38.81c.91.53,1.6,1.29,2.07,2.28.46.99.7,2.19.7,3.58v2.07h-8.87l-.03.08c.04.71.2,1.34.48,1.9.28.55.68.98,1.19,1.3.51.32,1.13.48,1.86.48.77,0,1.48-.1,2.12-.3.65-.2,1.26-.5,1.85-.89l1.07,2.31c-.59.49-1.34.91-2.26,1.24-.91.33-1.97.49-3.17.49ZM356.84,320.14h5.33v-.36c0-.62-.09-1.16-.27-1.61-.18-.46-.46-.83-.85-1.08-.37-.26-.86-.38-1.46-.38-.55,0-1.02.15-1.41.45-.39.29-.7.69-.93,1.2-.23.5-.38,1.07-.45,1.71l.04.07ZM373.4,329.29c-1.17,0-2.19-.3-3.04-.9-.85-.6-1.5-1.45-1.95-2.53-.45-1.09-.67-2.37-.67-3.81v-.29c0-1.56.22-2.93.67-4.1.46-1.18,1.11-2.09,1.95-2.73.85-.66,1.86-.98,3.02-.98.84,0,1.57.16,2.19.49.62.32,1.15.78,1.6,1.38v-5.47l-2.15-.41v-2.26h5.87v18.68l1.98.41v2.24h-5.2l-.29-1.79c-.46.68-1.03,1.2-1.68,1.56-.66.35-1.43.52-2.31.52ZM374.48,326.38c.61,0,1.14-.13,1.59-.4.45-.27.82-.64,1.11-1.14v-6.4c-.28-.5-.65-.89-1.09-1.18-.45-.28-.97-.42-1.57-.42-.7,0-1.28.21-1.74.63-.45.41-.78.98-1,1.72-.21.73-.31,1.58-.31,2.56v.29c0,1.34.24,2.4.71,3.17.47.77,1.24,1.16,2.31,1.16ZM396.86,329.27c-1.31,0-2.33-.36-3.06-1.09-.72-.74-1.08-1.9-1.08-3.5v-7.83h-2.09v-2.64h2.09v-3.61h3.71v3.61h2.83v2.64h-2.83v7.83c0,.6.13,1.03.38,1.3.26.26.6.4,1.02.4.24,0,.5-.02.78-.05.28-.04.52-.07.71-.11l.36,2.64c-.41.12-.87.22-1.37.3-.49.08-.98.12-1.45.12ZM407.87,329.29c-1.45,0-2.69-.32-3.72-.96s-1.82-1.52-2.38-2.65c-.56-1.14-.83-2.45-.83-3.92v-.29c0-1.47.28-2.77.83-3.9.56-1.13,1.35-2.02,2.38-2.67s2.26-.97,3.69-.97,2.68.32,3.71.97c1.03.64,1.82,1.52,2.36,2.65.56,1.13.83,2.43.83,3.91v.29c0,1.48-.28,2.78-.83,3.92-.55,1.13-1.33,2.01-2.36,2.65s-2.26.96-3.68.96ZM407.87,326.43c.72,0,1.31-.2,1.78-.59.47-.39.82-.94,1.05-1.64.23-.71.34-1.53.34-2.45v-.29c0-.91-.11-1.72-.34-2.42s-.58-1.25-1.05-1.64c-.47-.4-1.08-.6-1.8-.6s-1.33.2-1.8.6c-.46.39-.81.94-1.04,1.64s-.34,1.51-.34,2.42v.29c0,.93.11,1.74.34,2.45.23.7.58,1.25,1.05,1.64s1.08.59,1.82.59ZM423.63,329v-2.24l2-.41v-9.5h-2.23v-2.64h2.23v-1.68c0-1.65.46-2.92,1.38-3.8.93-.89,2.23-1.34,3.9-1.34.39,0,.81.03,1.26.1.46.06.86.14,1.2.23l-.34,2.77c-.2-.05-.44-.1-.72-.12-.28-.04-.57-.05-.85-.05-.71,0-1.24.19-1.59.57-.35.37-.52.92-.52,1.64v1.68h3.32v2.64h-3.32v9.5l2.6.41v2.24h-8.31ZM441.17,329.29c-1.4,0-2.63-.31-3.68-.93-1.04-.63-1.85-1.49-2.42-2.58-.57-1.1-.86-2.36-.86-3.77v-.56c0-1.45.27-2.74.82-3.87.56-1.13,1.33-2.02,2.32-2.67.99-.65,2.14-.97,3.45-.97s2.46.27,3.38.81c.91.53,1.6,1.29,2.06,2.28.47.99.7,2.19.7,3.58v2.07h-8.87l-.03.08c.04.71.2,1.34.48,1.9.28.55.68.98,1.19,1.3.51.32,1.13.48,1.86.48.77,0,1.48-.1,2.12-.3.65-.2,1.26-.5,1.85-.89l1.07,2.31c-.59.49-1.35.91-2.26,1.24-.91.33-1.97.49-3.17.49ZM438.11,320.14h5.33v-.36c0-.62-.09-1.16-.27-1.61-.18-.46-.46-.83-.85-1.08-.37-.26-.86-.38-1.46-.38-.55,0-1.02.15-1.41.45-.39.29-.7.69-.93,1.2-.23.5-.38,1.07-.45,1.71l.04.07ZM455.99,329.29c-1.4,0-2.63-.31-3.68-.93-1.04-.63-1.85-1.49-2.42-2.58-.57-1.1-.86-2.36-.86-3.77v-.56c0-1.45.27-2.74.82-3.87.56-1.13,1.33-2.02,2.32-2.67.99-.65,2.14-.97,3.44-.97s2.47.27,3.38.81c.91.53,1.6,1.29,2.06,2.28.46.99.7,2.19.7,3.58v2.07h-8.87l-.03.08c.04.71.2,1.34.48,1.9.28.55.68.98,1.19,1.3.51.32,1.13.48,1.86.48.77,0,1.48-.1,2.12-.3.65-.2,1.26-.5,1.85-.89l1.07,2.31c-.59.49-1.34.91-2.26,1.24-.91.33-1.97.49-3.17.49ZM452.93,320.14h5.33v-.36c0-.62-.09-1.16-.27-1.61-.18-.46-.46-.83-.85-1.08-.37-.26-.86-.38-1.46-.38-.55,0-1.02.15-1.41.45-.39.29-.7.69-.93,1.2-.23.5-.38,1.07-.45,1.71l.04.07ZM463.46,329v-2.24l2-.41v-16.01l-2.15-.41v-2.26h5.86v18.68l2,.41v2.24h-7.71ZM483.4,334.98c-.31,0-.66-.03-1.04-.1-.37-.05-.71-.12-1.02-.2l.42-2.76c.16.03.35.05.57.07.23.02.41.03.55.03.58,0,1.07-.16,1.48-.49s.71-.79.93-1.39l.4-1.05-5-12.35-1.78-.26v-2.26h7.52v2.26l-1.82.27,2.45,6.71.37,1.05h.08l2.9-7.78-1.8-.26v-2.26h7.05v2.26l-1.63.23-5.69,14.52c-.27.69-.62,1.32-1.04,1.89-.41.57-.93,1.03-1.57,1.37-.63.34-1.4.51-2.33.51ZM503.49,329.29c-1.45,0-2.69-.32-3.72-.96-1.03-.64-1.82-1.52-2.38-2.65-.56-1.14-.83-2.45-.83-3.92v-.29c0-1.47.28-2.77.83-3.9.56-1.13,1.35-2.02,2.38-2.67,1.03-.65,2.26-.97,3.69-.97s2.67.32,3.7.97c1.03.64,1.82,1.52,2.37,2.65.56,1.13.83,2.43.83,3.91v.29c0,1.48-.28,2.78-.83,3.92-.55,1.13-1.33,2.01-2.37,2.65-1.03.64-2.26.96-3.68.96ZM503.49,326.43c.72,0,1.31-.2,1.78-.59.47-.39.82-.94,1.05-1.64.23-.71.34-1.53.34-2.45v-.29c0-.91-.11-1.72-.34-2.42s-.58-1.25-1.05-1.64c-.47-.4-1.08-.6-1.8-.6s-1.33.2-1.8.6c-.46.39-.81.94-1.04,1.64s-.34,1.51-.34,2.42v.29c0,.93.11,1.74.34,2.45.23.7.58,1.25,1.05,1.64s1.08.59,1.82.59ZM518.53,329.29c-1.58,0-2.81-.5-3.7-1.49-.88-1-1.33-2.56-1.33-4.66v-6.26l-1.64-.41v-2.26h5.36v8.95c0,1.17.19,2,.57,2.49.39.48.99.73,1.79.73.66,0,1.24-.13,1.74-.4.49-.27.89-.64,1.19-1.14v-7.97l-1.8-.41v-2.26h5.52v12.14l1.76.41v2.24h-5.04l-.25-1.94c-.47.72-1.05,1.27-1.76,1.65-.7.38-1.5.57-2.41.57ZM529.77,329v-2.24l1.98-.41v-9.48l-2.13-.41v-2.26h5.58l.16,1.85.03.31c.37-.79.84-1.39,1.39-1.8.56-.42,1.21-.63,1.97-.63.25,0,.51.02.79.07.29.04.54.09.74.15l-.42,3.43-1.95-.11c-.59-.03-1.08.08-1.46.33-.37.25-.7.6-.97,1.05v7.49l1.98.41v2.24h-7.68ZM556.95,329.29c-.92,0-1.71-.18-2.38-.53-.66-.36-1.21-.89-1.65-1.59l-.27,1.83h-3.21v-18.66l-2.15-.41v-2.26h5.85v8.15c.44-.61.98-1.08,1.61-1.39.64-.33,1.38-.49,2.23-.49,1.2,0,2.22.32,3.06.97.84.65,1.48,1.56,1.91,2.74.45,1.17.67,2.54.67,4.11v.29c0,1.46-.22,2.73-.67,3.83-.44,1.09-1.08,1.93-1.93,2.53-.84.59-1.86.89-3.08.89ZM555.85,326.38c1.08,0,1.85-.38,2.34-1.14.48-.76.72-1.83.72-3.2v-.29c0-1-.11-1.87-.33-2.6-.21-.73-.54-1.29-.98-1.7-.45-.41-1.02-.61-1.72-.61-.65,0-1.2.15-1.65.46-.46.31-.82.72-1.09,1.24v6.25c.29.5.67.89,1.12,1.16.46.27.99.41,1.6.41ZM571.79,329.29c-1.4,0-2.63-.31-3.68-.93-1.04-.63-1.84-1.49-2.42-2.58-.57-1.1-.86-2.36-.86-3.77v-.56c0-1.45.27-2.74.82-3.87.56-1.13,1.33-2.02,2.33-2.67.99-.65,2.14-.97,3.45-.97s2.46.27,3.38.81c.91.53,1.6,1.29,2.06,2.28.47.99.7,2.19.7,3.58v2.07h-8.87l-.03.08c.04.71.2,1.34.48,1.9.28.55.68.98,1.19,1.3s1.13.48,1.86.48c.77,0,1.48-.1,2.12-.3.65-.2,1.26-.5,1.84-.89l1.07,2.31c-.59.49-1.35.91-2.26,1.24-.91.33-1.97.49-3.17.49ZM568.73,320.14h5.33v-.36c0-.62-.09-1.16-.27-1.61-.18-.46-.47-.83-.85-1.08-.37-.26-.86-.38-1.46-.38-.55,0-1.02.15-1.41.45-.39.29-.7.69-.93,1.2-.23.5-.38,1.07-.45,1.71l.04.07ZM585.77,329.29c-1.08,0-2.1-.1-3.04-.3-.93-.21-1.84-.51-2.73-.92l-.04-4.05h2.62l.52,2.13c.36.16.73.29,1.12.38.39.09.83.14,1.33.14.94,0,1.6-.15,1.98-.46.39-.32.59-.72.59-1.19s-.21-.85-.61-1.17c-.41-.34-1.2-.63-2.38-.88-1.76-.37-3.05-.93-3.88-1.68-.83-.76-1.24-1.72-1.24-2.9,0-.82.21-1.56.63-2.23.43-.66,1.07-1.2,1.91-1.6.85-.41,1.91-.62,3.19-.62,1.12,0,2.13.11,3.02.34.9.23,1.66.52,2.28.88l.07,3.91h-2.61l-.42-1.94c-.26-.19-.57-.34-.93-.44-.36-.11-.76-.16-1.2-.16-.73,0-1.3.15-1.71.46-.4.31-.6.7-.6,1.18,0,.27.07.52.2.75.14.23.4.44.79.64.4.19.98.37,1.75.55,1.88.43,3.23,1,4.06,1.71.84.71,1.26,1.68,1.26,2.9,0,1.35-.49,2.45-1.48,3.29-.97.85-2.46,1.27-4.44,1.27ZM599.29,329.27c-1.31,0-2.33-.36-3.06-1.09-.72-.74-1.08-1.9-1.08-3.5v-7.83h-2.09v-2.64h2.09v-3.61h3.7v3.61h2.83v2.64h-2.83v7.83c0,.6.13,1.03.38,1.3.26.26.6.4,1.03.4.24,0,.5-.02.78-.05.28-.04.52-.07.71-.11l.36,2.64c-.41.12-.87.22-1.37.3-.49.08-.98.12-1.45.12ZM604.55,329v-3.35h3.7v3.35h-3.7Z"/>
  <rect class="cls-8" x="60" y="377" width="112" height="36" rx="8" ry="8"/>
  <path class="cls-3" d="M85.91,394.19v4.34c-.16.21-.41.45-.76.7-.34.25-.79.47-1.35.65s-1.26.27-2.1.27c-.71,0-1.37-.12-1.96-.36-.59-.24-1.11-.6-1.54-1.07-.43-.47-.76-1.04-.99-1.71-.23-.68-.35-1.45-.35-2.31v-.79c0-.86.11-1.62.32-2.3.22-.68.53-1.25.94-1.72.41-.47.9-.82,1.47-1.06.58-.24,1.23-.37,1.96-.37.93,0,1.7.16,2.31.47.61.31,1.09.73,1.42,1.28.33.55.54,1.17.63,1.88h-1.92c-.06-.4-.18-.75-.37-1.06-.18-.31-.43-.56-.77-.73-.33-.18-.76-.27-1.28-.27-.45,0-.85.09-1.2.26-.34.17-.63.42-.86.76-.22.33-.39.74-.51,1.22s-.17,1.03-.17,1.64v.8c0,.62.07,1.18.2,1.66.14.48.33.89.58,1.23.26.33.57.59.93.76.36.17.78.25,1.23.25s.82-.04,1.1-.11c.29-.08.51-.17.68-.27.17-.11.3-.21.4-.31v-2.26h-2.37v-1.46h4.32ZM91.62,400.16c-.62,0-1.19-.1-1.7-.3-.5-.21-.93-.5-1.28-.87-.35-.37-.62-.8-.8-1.3-.19-.5-.28-1.04-.28-1.62v-.31c0-.66.1-1.26.29-1.8.19-.54.46-.99.8-1.38.34-.39.75-.68,1.22-.88s.98-.3,1.52-.3c.6,0,1.13.1,1.59.3.45.2.83.49,1.12.86.3.36.53.8.67,1.3.15.51.23,1.06.23,1.67v.8h-6.53v-1.35h4.67v-.15c-.01-.34-.08-.66-.2-.95-.12-.3-.3-.54-.55-.72s-.58-.27-1-.27c-.31,0-.59.07-.84.2-.24.13-.44.32-.6.57-.16.25-.29.55-.38.91-.08.35-.12.74-.12,1.18v.31c0,.37.05.71.15,1.03.1.31.26.59.45.82.2.23.44.42.72.55.28.13.6.2.96.2.45,0,.86-.09,1.21-.27.35-.18.66-.44.92-.77l.99.96c-.18.27-.42.52-.71.77-.29.24-.65.43-1.07.59-.42.15-.9.23-1.45.23ZM100.35,391.55v1.38h-4.77v-1.38h4.77ZM96.96,389.48h1.88v8.19c0,.26.04.46.11.6.08.14.18.23.32.27.14.05.29.07.48.07.13,0,.25,0,.38-.02s.22-.03.29-.05v1.44c-.15.05-.33.09-.54.12-.2.04-.44.05-.7.05-.43,0-.82-.08-1.15-.23-.33-.16-.59-.41-.78-.76s-.28-.81-.28-1.39v-8.3ZM110.53,397.71c0-.19-.05-.36-.14-.51-.09-.16-.27-.3-.54-.42-.26-.12-.65-.24-1.16-.34-.45-.1-.86-.22-1.23-.35-.37-.14-.69-.31-.95-.51-.27-.2-.47-.43-.62-.7-.15-.27-.22-.58-.22-.94s.08-.67.23-.98.37-.58.65-.81c.28-.23.62-.42,1.02-.55.41-.14.86-.2,1.36-.2.71,0,1.32.12,1.82.36.51.23.9.55,1.17.96.27.4.41.85.41,1.36h-1.88c0-.22-.06-.43-.17-.62-.11-.2-.28-.36-.5-.48-.22-.12-.51-.19-.84-.19s-.59.05-.81.16c-.21.1-.36.23-.47.39-.1.16-.15.34-.15.53,0,.14.03.27.08.38.06.11.15.21.28.3.13.09.31.17.53.25.23.08.52.15.86.23.65.14,1.2.31,1.66.52.47.21.83.48,1.08.81.25.33.38.74.38,1.25,0,.38-.08.72-.24,1.03-.16.31-.39.58-.69.8-.3.22-.66.4-1.09.52-.42.12-.89.19-1.41.19-.76,0-1.41-.14-1.94-.41-.53-.28-.94-.63-1.21-1.05-.27-.43-.41-.88-.41-1.34h1.82c.02.35.12.63.29.84.18.2.4.35.66.45.27.09.54.13.82.13.34,0,.62-.04.85-.13.23-.09.4-.22.52-.38.12-.16.18-.34.18-.55ZM117.9,391.55v1.38h-4.76v-1.38h4.76ZM114.51,389.48h1.88v8.19c0,.26.04.46.11.6.08.14.18.23.32.27.14.05.29.07.48.07.13,0,.26,0,.38-.02.12-.02.22-.03.29-.05v1.44c-.15.05-.33.09-.54.12-.2.04-.44.05-.7.05-.43,0-.82-.08-1.15-.23-.33-.16-.59-.41-.78-.76-.19-.35-.28-.81-.28-1.39v-8.3ZM124.12,398.3v-4.03c0-.3-.06-.56-.16-.78-.11-.22-.28-.39-.5-.51-.22-.12-.5-.18-.83-.18-.31,0-.57.05-.8.16-.22.1-.4.24-.52.42s-.19.38-.19.6h-1.88c0-.33.08-.66.24-.97.16-.31.4-.59.7-.84.31-.24.67-.44,1.1-.58.43-.14.91-.21,1.44-.21.64,0,1.2.11,1.69.32.49.21.88.54,1.16.97.29.43.43.96.43,1.61v3.76c0,.39.03.73.08,1.04.06.3.14.57.24.79v.12h-1.93c-.09-.2-.16-.46-.21-.77-.05-.32-.07-.62-.07-.92ZM124.39,394.86v1.16s-1.34,0-1.34,0c-.35,0-.66.03-.92.1-.27.06-.49.16-.66.28s-.31.28-.4.45c-.09.18-.13.38-.13.6s.05.43.16.62c.1.18.25.33.45.43.2.1.45.16.73.16.39,0,.72-.08,1.01-.23.29-.16.52-.36.69-.59.17-.23.26-.46.26-.66l.61.84c-.06.21-.17.44-.32.69s-.35.48-.59.7c-.24.22-.53.4-.87.54-.33.14-.72.21-1.16.21-.55,0-1.04-.11-1.48-.33-.43-.22-.77-.52-1.02-.9-.24-.38-.37-.81-.37-1.29,0-.45.08-.84.25-1.19.17-.35.42-.64.75-.88.33-.23.74-.41,1.22-.53.48-.12,1.03-.19,1.64-.19h1.48ZM129.87,393.16v6.84h-1.88v-8.45h1.8l.09,1.61ZM132.45,391.49v1.75c-.13-.02-.26-.04-.39-.05-.13-.01-.26-.02-.39-.02-.32,0-.61.05-.85.14-.24.09-.45.22-.62.39-.16.17-.29.37-.38.61-.09.24-.14.51-.16.8l-.43.03c0-.53.05-1.02.16-1.48.11-.45.26-.85.47-1.2.21-.34.48-.61.8-.8.32-.19.69-.29,1.12-.29.11,0,.24.01.37.03.14.02.24.04.31.07ZM137.9,391.55v1.38h-4.76v-1.38h4.76ZM134.51,389.48h1.88v8.19c0,.26.04.46.11.6.08.14.18.23.32.27.14.05.29.07.48.07.13,0,.26,0,.38-.02.12-.02.22-.03.29-.05v1.44c-.15.05-.33.09-.54.12-.2.04-.44.05-.7.05-.43,0-.81-.08-1.15-.23-.33-.16-.59-.41-.78-.76-.19-.35-.28-.81-.28-1.39v-8.3ZM143.08,400.16c-.62,0-1.19-.1-1.7-.3-.5-.21-.93-.5-1.28-.87-.35-.37-.62-.8-.81-1.3-.19-.5-.28-1.04-.28-1.62v-.31c0-.66.1-1.26.29-1.8.19-.54.46-.99.8-1.38.34-.39.75-.68,1.22-.88.47-.2.98-.3,1.52-.3.6,0,1.13.1,1.59.3.45.2.83.49,1.12.86.3.36.53.8.67,1.3.15.51.23,1.06.23,1.67v.8h-6.53v-1.35h4.67v-.15c-.01-.34-.08-.66-.2-.95-.12-.3-.3-.54-.55-.72s-.58-.27-1-.27c-.31,0-.59.07-.84.2-.24.13-.44.32-.6.57-.16.25-.29.55-.38.91-.08.35-.12.74-.12,1.18v.31c0,.37.05.71.15,1.03.1.31.26.59.45.82s.44.42.72.55c.28.13.6.2.96.2.45,0,.86-.09,1.21-.27.36-.18.66-.44.92-.77l.99.96c-.18.27-.42.52-.71.77-.29.24-.65.43-1.07.59-.42.15-.9.23-1.45.23ZM153.09,398.25v-10.25h1.89v12h-1.71l-.18-1.75ZM147.59,395.87v-.16c0-.64.07-1.22.23-1.75.15-.53.37-.99.66-1.37.29-.39.64-.68,1.05-.88.41-.21.88-.31,1.39-.31s.96.1,1.34.3c.38.2.71.48.98.85.27.36.49.8.65,1.31.16.51.28,1.07.34,1.69v.52c-.07.6-.18,1.16-.34,1.66-.16.5-.38.93-.65,1.3-.27.36-.6.65-.99.84-.39.2-.84.3-1.35.3s-.97-.11-1.38-.32c-.41-.21-.75-.51-1.04-.9-.29-.39-.5-.84-.66-1.36-.15-.53-.23-1.1-.23-1.71ZM149.47,395.7v.16c0,.39.03.74.1,1.08.07.33.18.63.34.88.15.25.35.45.59.59.24.14.54.21.88.21.43,0,.78-.09,1.05-.28.28-.19.49-.44.65-.76.16-.32.27-.68.33-1.08v-1.41c-.03-.31-.1-.59-.19-.86-.09-.27-.22-.5-.38-.7-.16-.2-.36-.36-.6-.47-.24-.11-.51-.17-.84-.17-.34,0-.64.07-.88.22-.24.15-.44.35-.59.6-.15.26-.26.55-.34.89-.07.34-.11.7-.11,1.09Z"/>
  <g class="cls-11">
    <g>
      <rect class="cls-9" x="775.5" y="60" width="655.5" height="380"/>
      <rect class="cls-2" x="1095.5" y="244" width="16" height="12" rx="1" ry="1"/>
      <path class="cls-6" d="M1105.07,253.43l-3.57-3.93-5,5.5h14l-3.5-3.5-1.93,1.93Z"/>
      <circle class="cls-5" cx="1105" cy="248" r="1.5"/>
    </g>
  </g>
</svg>